<svg width="44" height="44" viewBox="0 0 44 44" fill="none" xmlns="http://www.w3.org/2000/svg">
<path d="M22.0005 26.0278C24.225 26.0278 26.0283 24.2245 26.0283 22C26.0283 19.7755 24.225 17.9722 22.0005 17.9722C19.776 17.9722 17.9727 19.7755 17.9727 22C17.9727 24.2245 19.776 26.0278 22.0005 26.0278Z" fill="white"/>
<path d="M39.6637 11.8006C38.3637 9.55063 35.2425 8.62628 30.8705 9.19073C30.3158 9.263 29.7457 9.36268 29.1668 9.47983C27.5163 4.80142 24.946 1.83325 22.0006 1.83325C19.0505 1.83325 16.477 4.81134 14.8267 9.50282C9.80635 8.50791 5.83137 9.21555 4.33667 11.8006C2.84694 14.3801 4.20753 18.1614 7.55745 21.9999C4.20753 25.8384 2.84694 29.6197 4.3366 32.1993C5.40255 34.046 7.72826 34.9409 10.7982 34.9409C12.1521 34.9223 13.5009 34.7731 14.8261 34.4953C16.4763 39.1877 19.0502 42.1666 22.0006 42.1666C24.946 42.1666 27.5162 39.1984 29.1668 34.52C29.7456 34.6372 30.3157 34.7368 30.8704 34.8091C31.6588 34.9135 32.453 34.9674 33.2483 34.9704C36.3734 34.9704 38.6135 34.0166 39.6637 32.1993C41.1534 29.6198 39.793 25.8385 36.4436 22C39.793 18.1614 41.1534 14.3801 39.6637 11.8006ZM31.1399 11.2558C31.8447 11.1613 32.5549 11.112 33.266 11.1083C35.5768 11.1083 37.2072 11.7101 37.8621 12.8429C38.7866 14.4441 37.7403 17.3188 35.017 20.4838C33.7005 19.1884 32.2903 17.9918 30.7978 16.9037C30.5983 15.0869 30.263 13.2875 29.7948 11.5208C30.2421 11.4352 30.7095 11.3118 31.1399 11.2558ZM25.5073 28.0751C24.3221 28.7595 23.1531 29.3648 22.0112 29.8965C20.839 29.351 19.6623 28.75 18.493 28.0751C17.3034 27.3883 16.1917 26.6758 15.1571 25.9499C15.0429 24.6921 14.9795 23.3741 14.9795 21.9999C14.9795 20.6257 15.0429 19.3077 15.1571 18.0499C16.1917 17.3241 17.3034 16.6115 18.493 15.9247C19.657 15.2529 20.8284 14.6536 21.9951 14.1101C23.144 14.6442 24.3145 15.2359 25.5073 15.9247C26.6973 16.6117 27.8095 17.3244 28.8443 18.0506C28.9584 19.3083 29.0218 20.6261 29.0218 21.9999C29.0218 23.3738 28.9584 24.6915 28.8443 25.9492C27.8094 26.6754 26.6972 27.3881 25.5073 28.0751ZM28.4919 28.6894C28.3111 29.8159 28.0717 30.9321 27.7744 32.0336C26.6816 31.7318 25.6046 31.3754 24.5476 30.9655C25.2129 30.6225 25.8806 30.2627 26.5496 29.8765C27.2177 29.4909 27.863 29.0936 28.4919 28.6894ZM19.4645 30.9696C18.4041 31.3792 17.3237 31.735 16.2274 32.0356C15.9298 30.9333 15.6901 29.8162 15.5092 28.6889C16.1385 29.0932 16.7841 29.4906 17.4525 29.8766C18.1204 30.2623 18.792 30.623 19.4645 30.9696ZM12.9701 24.2922C12.0768 23.5723 11.2209 22.8072 10.4056 21.9999C11.2209 21.1926 12.0768 20.4275 12.9701 19.7075C12.9333 20.4597 12.9105 21.2225 12.9105 21.9999C12.9105 22.7774 12.9333 23.5401 12.9701 24.2922ZM15.5093 15.311C15.6899 14.1857 15.9292 13.0706 16.2261 11.9702C17.3247 12.2672 18.4074 12.6201 19.4699 13.0277C18.7957 13.375 18.1224 13.7364 17.4527 14.1232C16.7842 14.5092 16.1386 14.9066 15.5093 15.311ZM24.5486 13.034C25.6054 12.6244 26.6821 12.2681 27.7745 11.9663C28.0717 13.0678 28.3112 14.184 28.492 15.3105C27.863 14.9063 27.2177 14.509 26.5496 14.1233C25.8811 13.7373 25.2138 13.3769 24.5486 13.034ZM31.0312 19.7083C31.924 20.4281 32.7796 21.193 33.5946 21.9999C32.7796 22.8069 31.924 23.5718 31.0311 24.2916C31.0678 23.5397 31.0907 22.7773 31.0907 21.9999C31.0907 21.2226 31.0679 20.4601 31.0312 19.7083ZM22.0006 3.90224C23.8298 3.90224 25.7702 6.16518 27.1476 9.97138C25.3885 10.4653 23.6672 11.085 21.997 11.8256C20.3283 11.0871 18.6081 10.4709 16.8499 9.98207C18.2277 6.16923 20.1702 3.90224 22.0006 3.90224ZM6.1381 12.8429C6.78221 11.7278 8.43325 11.1299 10.7589 11.1299C11.9189 11.1463 13.0749 11.2699 14.2122 11.4993C13.7409 13.2731 13.4036 15.0798 13.2033 16.9042C11.7106 17.9922 10.3002 19.1889 8.98356 20.4844C6.2598 17.3193 5.2135 14.4442 6.1381 12.8429ZM6.1381 31.1569C5.2135 29.5557 6.2598 26.6806 8.98356 23.5154C10.3002 24.8109 11.7106 26.0076 13.2033 27.0957C13.4039 28.9235 13.742 30.7336 14.2149 32.5105C10.0945 33.2969 7.06749 32.7661 6.1381 31.1569ZM22.0006 40.0976C20.1697 40.0976 18.2267 37.8296 16.8488 34.0151C18.6094 33.5288 20.3322 32.9145 22.0033 32.177C23.6716 32.9164 25.3908 33.5351 27.1476 34.0283C25.7702 37.8345 23.8298 40.0976 22.0006 40.0976ZM37.8621 31.1569C37.0204 32.6103 34.5757 33.1905 31.1399 32.7441C30.7094 32.688 30.2421 32.5646 29.7948 32.4791C30.263 30.7123 30.5983 28.9129 30.7978 27.096C32.2903 26.008 33.7005 24.8114 35.0171 23.5161C37.7403 26.6811 38.7865 29.5558 37.8621 31.1569Z" fill="white"/>
</svg>
