<svg width="252" height="230" viewBox="0 0 252 230" fill="none" xmlns="http://www.w3.org/2000/svg">
<path fill-rule="evenodd" clip-rule="evenodd" d="M58.2431 19.8078C58.3291 21.8736 58.1722 23.9153 57.7719 25.9331C57.223 27.6967 56.2806 29.2281 54.9449 30.5271C43.2203 38.4818 33.0115 48.0625 24.3182 59.269C22.9207 59.4325 21.5857 59.1969 20.3132 58.5622C14.7869 55.3139 10.6641 50.7984 7.94478 45.0158C7.05232 40.8787 7.28791 36.795 8.65154 32.7652C11.0646 23.6931 15.423 15.7616 21.7268 8.97068C22.6539 8.4369 23.4393 7.73013 24.0826 6.85037C28.0688 2.9741 32.8593 1.05011 38.4536 1.07843C44.68 2.12341 49.9023 4.98976 54.1203 9.67744C56.4057 12.6785 57.7799 16.0553 58.2431 19.8078Z" fill="white"/>
<path fill-rule="evenodd" clip-rule="evenodd" d="M21.7268 8.97068C22.6539 8.4369 23.4393 7.73013 24.0826 6.85037C23.1555 7.38415 22.3702 8.09091 21.7268 8.97068Z" fill="white"/>
<path fill-rule="evenodd" clip-rule="evenodd" d="M58.2431 19.8078C58.5147 21.2573 58.5541 22.7494 58.3609 24.284C58.269 24.8975 58.0725 25.4473 57.7719 25.9331C58.1722 23.9153 58.3291 21.8736 58.2431 19.8078Z" fill="white"/>
<path fill-rule="evenodd" clip-rule="evenodd" d="M193.943 25.9331C193.542 23.9153 193.385 21.8736 193.471 19.8078C194.231 14.0858 196.901 9.4918 201.481 6.02581C204.469 3.82522 207.768 2.25462 211.376 1.31402C215.845 0.644294 220.007 1.50812 223.862 3.90551C227.887 6.51595 231.303 9.77493 234.111 13.6825C239.367 21.1366 242.745 29.3821 244.241 38.4193C244.792 42.1862 244.005 45.6416 241.885 48.7853C239.411 52.2013 236.466 55.1462 233.05 57.6199C231.339 58.7926 229.454 59.3425 227.396 59.269C218.703 48.0625 208.494 38.4818 196.77 30.5271C195.434 29.2281 194.491 27.6967 193.943 25.9331Z" fill="white"/>
<path fill-rule="evenodd" clip-rule="evenodd" d="M193.471 19.8078C193.385 21.8736 193.542 23.9153 193.943 25.9331C193.642 25.4473 193.445 24.8975 193.354 24.284C193.16 22.7494 193.2 21.2573 193.471 19.8078Z" fill="white"/>
<path fill-rule="evenodd" clip-rule="evenodd" d="M172.504 225.006C171.851 225.279 171.144 225.436 170.384 225.477C171.013 225.096 171.72 224.939 172.504 225.006Z" fill="white"/>
<path fill-rule="evenodd" clip-rule="evenodd" d="M67.4311 222.179C68.0559 222.158 68.6055 222.315 69.0802 222.65C68.4554 222.671 67.9058 222.514 67.4311 222.179Z" fill="white"/>
<path fill-rule="evenodd" clip-rule="evenodd" d="M195.121 218.41C194.647 218.778 194.097 219.014 193.471 219.116C193.9 218.657 194.45 218.422 195.121 218.41Z" fill="white"/>
<path fill-rule="evenodd" clip-rule="evenodd" d="M144.233 184.249C145.073 184.467 145.937 184.545 146.825 184.485C146.44 184.64 146.008 184.719 145.529 184.72C144.988 184.709 144.556 184.552 144.233 184.249Z" fill="white"/>
<path fill-rule="evenodd" clip-rule="evenodd" d="M107.481 184.249C107.158 184.552 106.726 184.709 106.186 184.72C105.707 184.719 105.275 184.64 104.89 184.485C105.778 184.545 106.642 184.467 107.481 184.249Z" fill="white"/>
<path fill-rule="evenodd" clip-rule="evenodd" d="M244.123 113.101C244.458 113.576 244.616 114.126 244.594 114.75C244.26 114.276 244.102 113.726 244.123 113.101Z" fill="white"/>
<path fill-rule="evenodd" clip-rule="evenodd" d="M217.973 64.0986C218.464 64.3542 218.778 64.7467 218.915 65.2765C218.423 65.0209 218.109 64.6284 217.973 64.0986Z" fill="white"/>
<path fill-rule="evenodd" clip-rule="evenodd" d="M108.659 20.9857C108.973 21.1428 108.973 21.1428 108.659 20.9857V20.9857Z" fill="white"/>
<path fill-rule="evenodd" clip-rule="evenodd" d="M217.973 64.0986C218.109 64.6284 218.423 65.0209 218.915 65.2765C230.449 79.4675 238.853 95.4091 244.123 113.101C244.102 113.726 244.26 114.276 244.594 114.75C246.632 120.512 248.319 126.402 249.659 132.419C252.15 146.37 250.892 159.956 245.89 173.176C236.688 192.431 222.356 206.449 202.895 215.229C200.35 216.424 197.758 217.484 195.121 218.41C194.45 218.422 193.9 218.657 193.471 219.116C186.69 221.795 179.701 223.758 172.504 225.006C171.72 224.939 171.013 225.096 170.384 225.477C159.299 227.926 148.069 229.3 136.694 229.6C113.75 230.838 91.2119 228.521 69.0802 222.65C68.6055 222.315 68.0559 222.158 67.4311 222.179C57.1721 219.091 47.3558 214.968 37.9824 209.811C23.7954 200.633 13.0762 188.422 5.82446 173.176C1.55172 162.083 0.0596535 150.617 1.34826 138.78C1.53465 135.846 1.9273 132.941 2.52621 130.064C5.56062 118.055 9.4871 106.354 14.3057 94.9608C23.6437 75.0978 36.7189 58.0962 53.5313 43.9557C64.5828 36.2305 76.5194 30.1052 89.3409 25.5797C95.7049 23.7808 102.144 22.3281 108.659 21.2213C101.691 27.5403 97.4894 35.3934 96.0552 44.7803C96.1061 59.8314 103.449 69.1371 118.083 72.6976C126.193 73.8704 133.496 71.9856 139.993 67.0435C145.794 61.6786 147.247 55.2784 144.351 47.8429C140.37 39.7478 133.891 35.9391 124.915 36.4168C121.536 37.1436 118.669 38.7537 116.316 41.2464C114.434 44.4356 115.258 46.5559 118.79 47.6073C119.261 47.4895 119.732 47.3717 120.203 47.254C125.503 42.0168 130.725 42.1346 135.87 47.6073C138.304 50.5025 139.089 53.8007 138.226 57.5021C137.628 59.2798 136.568 60.7327 135.045 61.8605C126.253 67.6536 117.693 67.3394 109.366 60.9181C104.661 56.3873 102.659 50.8509 103.358 44.3091C105.613 33.2267 112.013 25.7272 122.559 21.8103C128.056 19.6198 133.71 19.1487 139.521 20.3968C148.206 21.9293 156.766 23.9711 165.201 26.5221C176.956 30.9849 187.95 36.7961 198.183 43.9557C205.544 49.9418 212.14 56.6561 217.973 64.0986ZM61.3057 114.75C71.0674 118.884 80.6481 123.478 90.0476 128.532C91.4383 129.455 92.2629 130.751 92.5213 132.419C93.3372 138.472 92.0806 144.047 88.7519 149.146C84.3386 154.779 78.7236 156.468 71.9073 154.212C64.9423 150.62 60.5055 145.005 58.5965 137.367C57.3952 132.61 57.2383 127.819 58.1253 122.996C59.0563 120.192 60.1165 117.444 61.3057 114.75ZM189.938 114.75C190.533 115.224 190.965 115.852 191.233 116.635C196.083 127.838 194.905 138.361 187.699 148.204C184.654 151.945 180.767 154.261 176.038 155.154C170.57 155.541 166.211 153.539 162.963 149.146C159.109 143.31 158.088 137.027 159.9 130.299C160.332 129.553 160.921 128.964 161.667 128.532C170.982 123.599 180.406 119.005 189.938 114.75ZM146.825 184.485C145.937 184.545 145.073 184.467 144.233 184.249C143.523 184.051 142.894 183.697 142.348 183.189C136.895 178.617 131.398 174.102 125.857 169.643C120.317 174.102 114.82 178.617 109.366 183.189C108.82 183.697 108.192 184.051 107.481 184.249C106.642 184.467 105.778 184.545 104.89 184.485C102.148 183.295 101.245 181.253 102.18 178.359C108.549 172.777 115.067 167.359 121.734 162.104C121.88 161.88 121.841 161.684 121.617 161.515C118.466 160.312 117.563 158.152 118.907 155.036C119.817 153.92 120.995 153.292 122.441 153.151C124.719 153.465 126.996 153.465 129.273 153.151C132.81 153.785 134.066 155.826 133.043 159.277C132.774 159.774 132.421 160.205 131.983 160.572C131.189 160.89 130.482 161.321 129.862 161.868C136.188 167.212 142.588 172.473 149.063 177.653C150.646 180.718 149.9 182.995 146.825 184.485Z" fill="white"/>
</svg>
