<svg width="789" height="258" viewBox="0 0 789 258" fill="none" xmlns="http://www.w3.org/2000/svg">
<path d="M122.7 61.3291V167H105.367V94.6268L73.1334 167H61.1219L28.7364 94.6268V167H11.4033V61.3291H30.1048L67.2036 144.193L104.15 61.3291H122.7ZM139.704 124.732C139.704 116.319 141.427 108.868 144.873 102.381C148.421 95.8939 153.185 90.8764 159.166 87.3287C165.247 83.6796 171.937 81.8551 179.235 81.8551C185.824 81.8551 191.551 83.1728 196.416 85.8083C201.383 88.3423 205.336 91.5353 208.276 95.3871V83.2235H225.761V167H208.276V154.532C205.336 158.486 201.333 161.78 196.264 164.415C191.196 167.051 185.419 168.368 178.931 168.368C171.735 168.368 165.146 166.544 159.166 162.895C153.185 159.144 148.421 153.975 144.873 147.386C141.427 140.696 139.704 133.145 139.704 124.732ZM208.276 125.036C208.276 119.258 207.06 114.241 204.627 109.983C202.296 105.726 199.204 102.482 195.352 100.252C191.5 98.0225 187.344 96.9075 182.885 96.9075C178.425 96.9075 174.269 98.0225 170.417 100.252C166.565 102.381 163.423 105.574 160.99 109.831C158.659 113.987 157.493 118.954 157.493 124.732C157.493 130.509 158.659 135.577 160.99 139.936C163.423 144.295 166.565 147.64 170.417 149.971C174.37 152.201 178.526 153.316 182.885 153.316C187.344 153.316 191.5 152.201 195.352 149.971C199.204 147.741 202.296 144.497 204.627 140.24C207.06 135.882 208.276 130.813 208.276 125.036ZM242.75 124.732C242.75 116.319 244.473 108.868 247.919 102.381C251.467 95.8939 256.231 90.8764 262.211 87.3287C268.293 83.6796 275.034 81.8551 282.433 81.8551C287.907 81.8551 293.279 83.0715 298.55 85.5042C303.922 87.8355 308.179 90.9778 311.322 94.9309V54.4871H328.807V167H311.322V154.38C308.484 158.435 304.53 161.78 299.462 164.415C294.495 167.051 288.768 168.368 282.281 168.368C274.983 168.368 268.293 166.544 262.211 162.895C256.231 159.144 251.467 153.975 247.919 147.386C244.473 140.696 242.75 133.145 242.75 124.732ZM311.322 125.036C311.322 119.258 310.105 114.241 307.673 109.983C305.341 105.726 302.25 102.482 298.398 100.252C294.546 98.0225 290.39 96.9075 285.93 96.9075C281.47 96.9075 277.314 98.0225 273.463 100.252C269.611 102.381 266.469 105.574 264.036 109.831C261.705 113.987 260.539 118.954 260.539 124.732C260.539 130.509 261.705 135.577 264.036 139.936C266.469 144.295 269.611 147.64 273.463 149.971C277.416 152.201 281.572 153.316 285.93 153.316C290.39 153.316 294.546 152.201 298.398 149.971C302.25 147.741 305.341 144.497 307.673 140.24C310.105 135.882 311.322 130.813 311.322 125.036ZM359.479 60.2648V167H352.637V60.2648H359.479ZM412.081 168.216C402.857 168.216 395.305 166.189 389.426 162.135C383.648 158.08 380.405 152.302 379.695 144.802H386.689C387.196 150.174 389.629 154.431 393.988 157.573C398.447 160.715 404.479 162.287 412.081 162.287C418.365 162.287 423.332 160.715 426.981 157.573C430.732 154.33 432.607 150.376 432.607 145.714C432.607 142.47 431.593 139.835 429.566 137.807C427.64 135.679 425.207 134.057 422.268 132.942C419.328 131.827 415.324 130.611 410.256 129.293C404.174 127.671 399.258 126.1 395.508 124.58C391.758 122.958 388.565 120.576 385.929 117.434C383.294 114.291 381.976 110.085 381.976 104.814C381.976 100.962 383.142 97.4143 385.473 94.1707C387.804 90.8257 391.048 88.1903 395.204 86.2644C399.36 84.3385 404.073 83.3756 409.344 83.3756C417.96 83.3756 424.903 85.5549 430.174 89.9135C435.546 94.1707 438.435 100.1 438.841 107.703H431.999C431.695 102.229 429.566 97.7691 425.613 94.3228C421.66 90.8764 416.186 89.1532 409.192 89.1532C403.313 89.1532 398.447 90.6737 394.596 93.7146C390.744 96.7555 388.818 100.455 388.818 104.814C388.818 108.666 389.882 111.808 392.011 114.241C394.241 116.572 396.927 118.396 400.069 119.714C403.313 120.931 407.57 122.248 412.841 123.667C418.619 125.188 423.231 126.708 426.677 128.229C430.225 129.648 433.215 131.776 435.648 134.615C438.08 137.351 439.297 141.051 439.297 145.714C439.297 149.971 438.131 153.823 435.8 157.269C433.468 160.715 430.225 163.402 426.069 165.328C421.913 167.253 417.25 168.216 412.081 168.216ZM487.658 168.216C478.434 168.216 470.882 166.189 465.003 162.135C459.225 158.08 455.982 152.302 455.272 144.802H462.266C462.773 150.174 465.206 154.431 469.564 157.573C474.024 160.715 480.055 162.287 487.658 162.287C493.942 162.287 498.909 160.715 502.558 157.573C506.308 154.33 508.184 150.376 508.184 145.714C508.184 142.47 507.17 139.835 505.143 137.807C503.217 135.679 500.784 134.057 497.845 132.942C494.905 131.827 490.901 130.611 485.833 129.293C479.751 127.671 474.835 126.1 471.085 124.58C467.334 122.958 464.141 120.576 461.506 117.434C458.87 114.291 457.553 110.085 457.553 104.814C457.553 100.962 458.718 97.4143 461.05 94.1707C463.381 90.8257 466.625 88.1903 470.781 86.2644C474.937 84.3385 479.65 83.3756 484.921 83.3756C493.537 83.3756 500.48 85.5549 505.751 89.9135C511.123 94.1707 514.012 100.1 514.417 107.703H507.575C507.271 102.229 505.143 97.7691 501.19 94.3228C497.236 90.8764 491.763 89.1532 484.769 89.1532C478.89 89.1532 474.024 90.6737 470.172 93.7146C466.321 96.7555 464.395 100.455 464.395 104.814C464.395 108.666 465.459 111.808 467.588 114.241C469.818 116.572 472.504 118.396 475.646 119.714C478.89 120.931 483.147 122.248 488.418 123.667C494.195 125.188 498.808 126.708 502.254 128.229C505.802 129.648 508.792 131.776 511.224 134.615C513.657 137.351 514.874 141.051 514.874 145.714C514.874 149.971 513.708 153.823 511.377 157.269C509.045 160.715 505.802 163.402 501.646 165.328C497.49 167.253 492.827 168.216 487.658 168.216ZM605.503 84.4399V167H598.661V149.059C596.329 155.343 592.427 160.158 586.953 163.503C581.581 166.747 575.398 168.368 568.404 168.368C558.572 168.368 550.513 165.378 544.229 159.398C538.046 153.316 534.954 144.345 534.954 132.486V84.4399H541.644V132.03C541.644 141.862 544.127 149.414 549.094 154.684C554.061 159.854 560.802 162.439 569.316 162.439C578.236 162.439 585.331 159.601 590.602 153.924C595.975 148.248 598.661 139.835 598.661 128.685V84.4399H605.503ZM704.795 120.17C704.795 123.819 704.693 126.556 704.491 128.381H633.182C633.385 135.78 635.006 142.014 638.047 147.082C641.088 152.15 645.092 155.951 650.059 158.486C655.026 161.02 660.449 162.287 666.328 162.287C674.437 162.287 681.228 160.31 686.702 156.357C692.175 152.302 695.622 146.829 697.041 139.936H704.187C702.565 148.349 698.409 155.191 691.719 160.462C685.029 165.632 676.565 168.216 666.328 168.216C658.624 168.216 651.731 166.493 645.65 163.047C639.568 159.601 634.804 154.684 631.357 148.299C627.911 141.811 626.188 134.26 626.188 125.644C626.188 117.028 627.86 109.527 631.205 103.141C634.652 96.7555 639.416 91.89 645.498 88.5451C651.579 85.0987 658.523 83.3756 666.328 83.3756C674.234 83.3756 681.076 85.0987 686.854 88.5451C692.733 91.89 697.193 96.4007 700.234 102.077C703.274 107.652 704.795 113.683 704.795 120.17ZM697.953 122.755C698.257 115.457 696.939 109.274 694 104.206C691.162 99.1375 687.259 95.3871 682.292 92.9544C677.325 90.4203 671.953 89.1532 666.176 89.1532C660.398 89.1532 655.026 90.4203 650.059 92.9544C645.193 95.3871 641.19 99.1375 638.047 104.206C635.006 109.274 633.385 115.457 633.182 122.755H697.953ZM752.993 168.216C743.769 168.216 736.217 166.189 730.338 162.135C724.561 158.08 721.317 152.302 720.607 144.802H727.602C728.108 150.174 730.541 154.431 734.9 157.573C739.36 160.715 745.391 162.287 752.993 162.287C759.277 162.287 764.244 160.715 767.893 157.573C771.644 154.33 773.519 150.376 773.519 145.714C773.519 142.47 772.505 139.835 770.478 137.807C768.552 135.679 766.119 134.057 763.18 132.942C760.24 131.827 756.237 130.611 751.168 129.293C745.087 127.671 740.171 126.1 736.42 124.58C732.67 122.958 729.477 120.576 726.841 117.434C724.206 114.291 722.888 110.085 722.888 104.814C722.888 100.962 724.054 97.4143 726.385 94.1707C728.717 90.8257 731.96 88.1903 736.116 86.2644C740.272 84.3385 744.985 83.3756 750.256 83.3756C758.872 83.3756 765.815 85.5549 771.086 89.9135C776.458 94.1707 779.347 100.1 779.753 107.703H772.911C772.607 102.229 770.478 97.7691 766.525 94.3228C762.572 90.8764 757.098 89.1532 750.104 89.1532C744.225 89.1532 739.36 90.6737 735.508 93.7146C731.656 96.7555 729.73 100.455 729.73 104.814C729.73 108.666 730.794 111.808 732.923 114.241C735.153 116.572 737.839 118.396 740.981 119.714C744.225 120.931 748.482 122.248 753.753 123.667C759.531 125.188 764.143 126.708 767.589 128.229C771.137 129.648 774.127 131.776 776.56 134.615C778.993 137.351 780.209 141.051 780.209 145.714C780.209 149.971 779.043 153.823 776.712 157.269C774.381 160.715 771.137 163.402 766.981 165.328C762.825 167.253 758.162 168.216 752.993 168.216Z" fill="white"/>
<path d="M27.0244 197.36V200.565H16.303V235.99H12.4345V200.565H1.65794V197.36H27.0244ZM47.5016 205.263C49.7859 205.263 51.8307 205.742 53.636 206.7C55.4781 207.657 56.915 209.131 57.9466 211.121C59.015 213.073 59.5493 215.468 59.5493 218.305V235.99H55.736V218.747C55.736 215.468 54.907 212.963 53.2491 211.231C51.628 209.5 49.399 208.634 46.5621 208.634C43.6515 208.634 41.3304 209.555 39.5988 211.397C37.8671 213.239 37.0013 215.947 37.0013 219.521V235.99H33.1328V195.094H37.0013V210.955C37.9593 209.15 39.3593 207.75 41.2014 206.755C43.0804 205.76 45.1805 205.263 47.5016 205.263ZM95.4056 219.355C95.4056 220.681 95.3687 221.695 95.2951 222.395H70.2602C70.3707 224.679 70.9234 226.632 71.9182 228.253C72.9129 229.874 74.2208 231.108 75.8419 231.955C77.463 232.766 79.2315 233.171 81.1473 233.171C83.6527 233.171 85.7527 232.563 87.4475 231.348C89.1791 230.132 90.3212 228.492 90.8739 226.429H94.9635C94.2266 229.376 92.6424 231.79 90.2107 233.669C87.8159 235.511 84.7948 236.432 81.1473 236.432C78.3104 236.432 75.7683 235.806 73.5208 234.553C71.2734 233.263 69.5049 231.458 68.2154 229.137C66.9628 226.779 66.3364 224.034 66.3364 220.903C66.3364 217.771 66.9628 215.026 68.2154 212.668C69.4681 210.31 71.2181 208.505 73.4656 207.252C75.713 206 78.2736 205.373 81.1473 205.373C84.0211 205.373 86.5264 206 88.6633 207.252C90.837 208.505 92.495 210.2 93.6371 212.337C94.8161 214.437 95.4056 216.776 95.4056 219.355ZM91.4818 219.245C91.5186 216.997 91.0581 215.081 90.1002 213.497C89.1791 211.913 87.908 210.715 86.2869 209.905C84.6658 209.094 82.8974 208.689 80.9815 208.689C78.1078 208.689 75.6577 209.61 73.6314 211.452C71.605 213.294 70.4813 215.892 70.2602 219.245H91.4818ZM128.37 232.232L138.539 205.815H142.628L130.525 235.99H126.159L114.056 205.815H118.201L128.37 232.232ZM161.08 236.432C158.243 236.432 155.682 235.806 153.398 234.553C151.151 233.263 149.364 231.458 148.037 229.137C146.748 226.779 146.103 224.034 146.103 220.903C146.103 217.771 146.766 215.044 148.093 212.723C149.419 210.365 151.224 208.56 153.508 207.307C155.793 206.018 158.353 205.373 161.19 205.373C164.027 205.373 166.588 206.018 168.872 207.307C171.193 208.56 172.998 210.365 174.288 212.723C175.614 215.044 176.277 217.771 176.277 220.903C176.277 223.997 175.614 226.724 174.288 229.082C172.962 231.44 171.138 233.263 168.817 234.553C166.496 235.806 163.917 236.432 161.08 236.432ZM161.08 233.061C163.069 233.061 164.911 232.619 166.606 231.734C168.301 230.813 169.664 229.45 170.696 227.645C171.764 225.803 172.298 223.555 172.298 220.903C172.298 218.25 171.783 216.021 170.751 214.216C169.719 212.373 168.356 211.01 166.661 210.126C164.967 209.205 163.124 208.744 161.135 208.744C159.145 208.744 157.303 209.205 155.609 210.126C153.914 211.01 152.551 212.373 151.519 214.216C150.524 216.021 150.027 218.25 150.027 220.903C150.027 223.555 150.524 225.803 151.519 227.645C152.551 229.45 153.895 230.813 155.553 231.734C157.248 232.619 159.09 233.061 161.08 233.061ZM185.264 200.123C184.49 200.123 183.827 199.847 183.274 199.294C182.721 198.741 182.445 198.06 182.445 197.249C182.445 196.439 182.721 195.776 183.274 195.26C183.827 194.707 184.49 194.431 185.264 194.431C186.037 194.431 186.7 194.707 187.253 195.26C187.806 195.776 188.082 196.439 188.082 197.249C188.082 198.06 187.806 198.741 187.253 199.294C186.7 199.847 186.037 200.123 185.264 200.123ZM187.198 205.815V235.99H183.329V205.815H187.198ZM194.19 220.903C194.19 217.771 194.816 215.044 196.069 212.723C197.321 210.365 199.053 208.56 201.264 207.307C203.474 206.018 205.998 205.373 208.835 205.373C212.556 205.373 215.614 206.294 218.009 208.136C220.44 209.979 222.006 212.484 222.706 215.652H218.561C218.045 213.479 216.922 211.784 215.19 210.568C213.495 209.315 211.377 208.689 208.835 208.689C206.808 208.689 204.985 209.15 203.364 210.071C201.742 210.992 200.453 212.373 199.495 214.216C198.574 216.021 198.113 218.25 198.113 220.903C198.113 223.555 198.574 225.803 199.495 227.645C200.453 229.487 201.742 230.869 203.364 231.79C204.985 232.711 206.808 233.171 208.835 233.171C211.377 233.171 213.495 232.563 215.19 231.348C216.922 230.095 218.045 228.363 218.561 226.153H222.706C222.006 229.247 220.44 231.734 218.009 233.613C215.577 235.492 212.519 236.432 208.835 236.432C205.998 236.432 203.474 235.806 201.264 234.553C199.053 233.263 197.321 231.458 196.069 229.137C194.816 226.779 194.19 224.034 194.19 220.903ZM257.151 219.355C257.151 220.681 257.115 221.695 257.041 222.395H232.006C232.117 224.679 232.669 226.632 233.664 228.253C234.659 229.874 235.967 231.108 237.588 231.955C239.209 232.766 240.977 233.171 242.893 233.171C245.399 233.171 247.499 232.563 249.193 231.348C250.925 230.132 252.067 228.492 252.62 226.429H256.709C255.973 229.376 254.388 231.79 251.957 233.669C249.562 235.511 246.541 236.432 242.893 236.432C240.056 236.432 237.514 235.806 235.267 234.553C233.019 233.263 231.251 231.458 229.961 229.137C228.709 226.779 228.082 224.034 228.082 220.903C228.082 217.771 228.709 215.026 229.961 212.668C231.214 210.31 232.964 208.505 235.211 207.252C237.459 206 240.019 205.373 242.893 205.373C245.767 205.373 248.272 206 250.409 207.252C252.583 208.505 254.241 210.2 255.383 212.337C256.562 214.437 257.151 216.776 257.151 219.355ZM253.228 219.245C253.265 216.997 252.804 215.081 251.846 213.497C250.925 211.913 249.654 210.715 248.033 209.905C246.412 209.094 244.643 208.689 242.727 208.689C239.854 208.689 237.404 209.61 235.377 211.452C233.351 213.294 232.227 215.892 232.006 219.245H253.228ZM292.603 236.432C289.766 236.432 287.205 235.806 284.921 234.553C282.674 233.263 280.887 231.458 279.56 229.137C278.271 226.779 277.626 224.034 277.626 220.903C277.626 217.771 278.289 215.044 279.616 212.723C280.942 210.365 282.747 208.56 285.032 207.307C287.316 206.018 289.876 205.373 292.713 205.373C295.55 205.373 298.111 206.018 300.395 207.307C302.716 208.56 304.522 210.365 305.811 212.723C307.137 215.044 307.801 217.771 307.801 220.903C307.801 223.997 307.137 226.724 305.811 229.082C304.485 231.44 302.661 233.263 300.34 234.553C298.019 235.806 295.44 236.432 292.603 236.432ZM292.603 233.061C294.592 233.061 296.435 232.619 298.129 231.734C299.824 230.813 301.187 229.45 302.219 227.645C303.287 225.803 303.822 223.555 303.822 220.903C303.822 218.25 303.306 216.021 302.274 214.216C301.243 212.373 299.879 211.01 298.185 210.126C296.49 209.205 294.648 208.744 292.658 208.744C290.669 208.744 288.826 209.205 287.132 210.126C285.437 211.01 284.074 212.373 283.042 214.216C282.047 216.021 281.55 218.25 281.55 220.903C281.55 223.555 282.047 225.803 283.042 227.645C284.074 229.45 285.418 230.813 287.076 231.734C288.771 232.619 290.613 233.061 292.603 233.061ZM326.734 209.076H319.716V235.99H315.847V209.076H311.647V205.815H315.847V203.715C315.847 200.436 316.676 198.023 318.334 196.476C320.029 194.928 322.755 194.154 326.513 194.154V197.47C324.008 197.47 322.239 197.949 321.208 198.907C320.213 199.865 319.716 201.468 319.716 203.715V205.815H326.734V209.076ZM358.379 236.432C354.916 236.432 352.079 235.64 349.869 234.055C347.695 232.434 346.479 230.242 346.221 227.479H350.2C350.384 229.174 351.176 230.555 352.577 231.624C354.013 232.655 355.929 233.171 358.324 233.171C360.424 233.171 362.064 232.674 363.243 231.679C364.458 230.684 365.066 229.45 365.066 227.976C365.066 226.945 364.735 226.097 364.072 225.434C363.408 224.771 362.561 224.255 361.529 223.887C360.535 223.482 359.171 223.058 357.44 222.616C355.192 222.026 353.369 221.437 351.969 220.847C350.569 220.258 349.371 219.392 348.376 218.25C347.418 217.071 346.94 215.505 346.94 213.552C346.94 212.079 347.382 210.715 348.266 209.463C349.15 208.21 350.403 207.215 352.024 206.478C353.645 205.742 355.487 205.373 357.55 205.373C360.793 205.373 363.408 206.202 365.398 207.86C367.387 209.481 368.456 211.729 368.603 214.602H364.735C364.624 212.834 363.924 211.415 362.635 210.347C361.382 209.242 359.65 208.689 357.44 208.689C355.487 208.689 353.903 209.15 352.687 210.071C351.471 210.992 350.863 212.134 350.863 213.497C350.863 214.676 351.213 215.652 351.913 216.426C352.65 217.163 353.553 217.752 354.621 218.195C355.69 218.6 357.127 219.06 358.932 219.576C361.106 220.166 362.837 220.737 364.127 221.289C365.416 221.842 366.522 222.653 367.443 223.721C368.364 224.789 368.843 226.208 368.88 227.976C368.88 229.597 368.437 231.053 367.553 232.342C366.669 233.595 365.435 234.59 363.85 235.327C362.266 236.063 360.442 236.432 358.379 236.432ZM381.191 209.076V227.811C381.191 229.653 381.541 230.924 382.241 231.624C382.941 232.324 384.175 232.674 385.943 232.674H389.48V235.99H385.335C382.609 235.99 380.583 235.363 379.256 234.111C377.93 232.821 377.267 230.721 377.267 227.811V209.076H373.067V205.815H377.267V198.244H381.191V205.815H389.48V209.076H381.191ZM422 205.815V235.99H418.132V230.684C417.248 232.563 415.884 234 414.042 234.995C412.2 235.99 410.137 236.487 407.853 236.487C404.242 236.487 401.295 235.382 399.01 233.171C396.726 230.924 395.584 227.682 395.584 223.445V205.815H399.397V223.003C399.397 226.282 400.208 228.787 401.829 230.519C403.487 232.25 405.734 233.116 408.571 233.116C411.482 233.116 413.803 232.195 415.534 230.353C417.266 228.511 418.132 225.803 418.132 222.229V205.815H422ZM429.064 220.847C429.064 217.752 429.69 215.044 430.943 212.723C432.196 210.365 433.909 208.56 436.083 207.307C438.293 206.018 440.78 205.373 443.543 205.373C446.196 205.373 448.591 206.018 450.728 207.307C452.865 208.597 454.43 210.273 455.425 212.337V195.094H459.294V235.99H455.425V229.247C454.504 231.348 452.993 233.079 450.893 234.442C448.793 235.769 446.325 236.432 443.488 236.432C440.725 236.432 438.238 235.787 436.027 234.498C433.854 233.208 432.14 231.384 430.888 229.026C429.672 226.668 429.064 223.942 429.064 220.847ZM455.425 220.903C455.425 218.471 454.928 216.334 453.933 214.492C452.938 212.65 451.575 211.231 449.843 210.236C448.149 209.242 446.27 208.744 444.206 208.744C442.07 208.744 440.154 209.223 438.459 210.181C436.764 211.139 435.419 212.539 434.425 214.381C433.467 216.187 432.988 218.342 432.988 220.847C432.988 223.316 433.467 225.489 434.425 227.368C435.419 229.211 436.764 230.629 438.459 231.624C440.154 232.582 442.07 233.061 444.206 233.061C446.27 233.061 448.149 232.563 449.843 231.569C451.575 230.574 452.938 229.155 453.933 227.313C454.928 225.471 455.425 223.334 455.425 220.903ZM495.426 219.355C495.426 220.681 495.389 221.695 495.315 222.395H470.28C470.391 224.679 470.944 226.632 471.938 228.253C472.933 229.874 474.241 231.108 475.862 231.955C477.483 232.766 479.252 233.171 481.168 233.171C483.673 233.171 485.773 232.563 487.468 231.348C489.199 230.132 490.341 228.492 490.894 226.429H494.984C494.247 229.376 492.663 231.79 490.231 233.669C487.836 235.511 484.815 236.432 481.168 236.432C478.331 236.432 475.788 235.806 473.541 234.553C471.294 233.263 469.525 231.458 468.236 229.137C466.983 226.779 466.357 224.034 466.357 220.903C466.357 217.771 466.983 215.026 468.236 212.668C469.488 210.31 471.238 208.505 473.486 207.252C475.733 206 478.294 205.373 481.168 205.373C484.041 205.373 486.547 206 488.684 207.252C490.857 208.505 492.515 210.2 493.657 212.337C494.836 214.437 495.426 216.776 495.426 219.355ZM491.502 219.245C491.539 216.997 491.078 215.081 490.12 213.497C489.199 211.913 487.928 210.715 486.307 209.905C484.686 209.094 482.918 208.689 481.002 208.689C478.128 208.689 475.678 209.61 473.652 211.452C471.625 213.294 470.502 215.892 470.28 219.245H491.502ZM516.651 205.263C520.262 205.263 523.209 206.386 525.494 208.634C527.778 210.844 528.92 214.068 528.92 218.305V235.99H525.107V218.747C525.107 215.468 524.278 212.963 522.62 211.231C520.999 209.5 518.77 208.634 515.933 208.634C513.022 208.634 510.701 209.555 508.97 211.397C507.238 213.239 506.372 215.947 506.372 219.521V235.99H502.504V205.815H506.372V210.955C507.33 209.113 508.712 207.713 510.517 206.755C512.322 205.76 514.367 205.263 516.651 205.263ZM542.505 209.076V227.811C542.505 229.653 542.855 230.924 543.555 231.624C544.255 232.324 545.489 232.674 547.257 232.674H550.794V235.99H546.65C543.923 235.99 541.897 235.363 540.57 234.111C539.244 232.821 538.581 230.721 538.581 227.811V209.076H534.381V205.815H538.581V198.244H542.505V205.815H550.794V209.076H542.505ZM567.564 236.432C564.101 236.432 561.264 235.64 559.053 234.055C556.88 232.434 555.664 230.242 555.406 227.479H559.385C559.569 229.174 560.361 230.555 561.761 231.624C563.198 232.655 565.114 233.171 567.509 233.171C569.609 233.171 571.248 232.674 572.427 231.679C573.643 230.684 574.251 229.45 574.251 227.976C574.251 226.945 573.92 226.097 573.256 225.434C572.593 224.771 571.746 224.255 570.714 223.887C569.72 223.482 568.356 223.058 566.625 222.616C564.377 222.026 562.554 221.437 561.154 220.847C559.753 220.258 558.556 219.392 557.561 218.25C556.603 217.071 556.124 215.505 556.124 213.552C556.124 212.079 556.567 210.715 557.451 209.463C558.335 208.21 559.588 207.215 561.209 206.478C562.83 205.742 564.672 205.373 566.735 205.373C569.977 205.373 572.593 206.202 574.583 207.86C576.572 209.481 577.641 211.729 577.788 214.602H573.92C573.809 212.834 573.109 211.415 571.82 210.347C570.567 209.242 568.835 208.689 566.625 208.689C564.672 208.689 563.088 209.15 561.872 210.071C560.656 210.992 560.048 212.134 560.048 213.497C560.048 214.676 560.398 215.652 561.098 216.426C561.835 217.163 562.738 217.752 563.806 218.195C564.875 218.6 566.312 219.06 568.117 219.576C570.291 220.166 572.022 220.737 573.312 221.289C574.601 221.842 575.706 222.653 576.628 223.721C577.549 224.789 578.028 226.208 578.064 227.976C578.064 229.597 577.622 231.053 576.738 232.342C575.854 233.595 574.62 234.59 573.035 235.327C571.451 236.063 569.627 236.432 567.564 236.432Z" fill="white"/>
</svg>
