<svg width="1081" height="259" viewBox="0 0 1081 259" fill="none" xmlns="http://www.w3.org/2000/svg">
<path fill-rule="evenodd" clip-rule="evenodd" d="M58.2431 34.3078C58.3291 36.3736 58.1722 38.4153 57.7719 40.4331C57.223 42.1967 56.2806 43.7281 54.9449 45.0271C43.2203 52.9818 33.0115 62.5625 24.3182 73.769C22.9207 73.9325 21.5857 73.6969 20.3132 73.0622C14.7869 69.8139 10.6641 65.2984 7.94478 59.5158C7.05232 55.3787 7.28791 51.295 8.65154 47.2652C11.0646 38.1931 15.423 30.2616 21.7268 23.4707C22.6539 22.9369 23.4393 22.2301 24.0826 21.3504C28.0688 17.4741 32.8593 15.5501 38.4536 15.5784C44.68 16.6234 49.9023 19.4898 54.1203 24.1774C56.4057 27.1785 57.7799 30.5553 58.2431 34.3078Z" fill="white"/>
<path fill-rule="evenodd" clip-rule="evenodd" d="M21.7268 23.4707C22.6539 22.9369 23.4393 22.2301 24.0826 21.3504C23.1555 21.8841 22.3702 22.5909 21.7268 23.4707Z" fill="white"/>
<path fill-rule="evenodd" clip-rule="evenodd" d="M58.2431 34.3078C58.5147 35.7573 58.5541 37.2494 58.3609 38.784C58.269 39.3975 58.0725 39.9473 57.7719 40.4331C58.1722 38.4153 58.3291 36.3736 58.2431 34.3078Z" fill="white"/>
<path fill-rule="evenodd" clip-rule="evenodd" d="M193.943 40.4331C193.542 38.4153 193.385 36.3736 193.471 34.3078C194.231 28.5858 196.901 23.9918 201.481 20.5258C204.469 18.3252 207.768 16.7546 211.376 15.814C215.845 15.1443 220.007 16.0081 223.862 18.4055C227.887 21.016 231.303 24.2749 234.111 28.1825C239.367 35.6366 242.745 43.8821 244.241 52.9193C244.792 56.6862 244.005 60.1416 241.885 63.2853C239.411 66.7013 236.466 69.6462 233.05 72.1199C231.339 73.2926 229.454 73.8425 227.396 73.769C218.703 62.5625 208.494 52.9818 196.77 45.0271C195.434 43.7281 194.491 42.1967 193.943 40.4331Z" fill="white"/>
<path fill-rule="evenodd" clip-rule="evenodd" d="M193.471 34.3078C193.385 36.3736 193.542 38.4153 193.943 40.4331C193.642 39.9473 193.445 39.3975 193.354 38.784C193.16 37.2494 193.2 35.7573 193.471 34.3078Z" fill="white"/>
<path fill-rule="evenodd" clip-rule="evenodd" d="M172.504 239.506C171.851 239.779 171.144 239.936 170.384 239.977C171.013 239.596 171.72 239.439 172.504 239.506Z" fill="white"/>
<path fill-rule="evenodd" clip-rule="evenodd" d="M67.4311 236.679C68.0559 236.658 68.6055 236.815 69.0802 237.15C68.4554 237.171 67.9058 237.014 67.4311 236.679Z" fill="white"/>
<path fill-rule="evenodd" clip-rule="evenodd" d="M195.121 232.91C194.647 233.278 194.097 233.514 193.471 233.616C193.9 233.157 194.45 232.922 195.121 232.91Z" fill="white"/>
<path fill-rule="evenodd" clip-rule="evenodd" d="M144.233 198.749C145.073 198.967 145.937 199.045 146.825 198.985C146.44 199.14 146.008 199.219 145.529 199.22C144.988 199.209 144.556 199.052 144.233 198.749Z" fill="white"/>
<path fill-rule="evenodd" clip-rule="evenodd" d="M107.481 198.749C107.158 199.052 106.726 199.209 106.186 199.22C105.707 199.219 105.275 199.14 104.89 198.985C105.778 199.045 106.642 198.967 107.481 198.749Z" fill="white"/>
<path fill-rule="evenodd" clip-rule="evenodd" d="M244.123 127.601C244.458 128.076 244.616 128.626 244.594 129.25C244.26 128.776 244.102 128.226 244.123 127.601Z" fill="white"/>
<path fill-rule="evenodd" clip-rule="evenodd" d="M217.973 78.5986C218.464 78.8542 218.778 79.2467 218.915 79.7765C218.423 79.5209 218.109 79.1284 217.973 78.5986Z" fill="white"/>
<path fill-rule="evenodd" clip-rule="evenodd" d="M108.659 35.4857C108.973 35.6428 108.973 35.6428 108.659 35.4857V35.4857Z" fill="white"/>
<path fill-rule="evenodd" clip-rule="evenodd" d="M217.973 78.5986C218.109 79.1284 218.423 79.5209 218.915 79.7765C230.449 93.9675 238.853 109.909 244.123 127.601C244.102 128.226 244.26 128.776 244.594 129.25C246.632 135.012 248.319 140.902 249.659 146.919C252.15 160.87 250.892 174.456 245.89 187.676C236.688 206.931 222.356 220.949 202.895 229.729C200.35 230.924 197.758 231.984 195.121 232.91C194.45 232.922 193.9 233.157 193.471 233.616C186.69 236.295 179.701 238.258 172.504 239.506C171.72 239.439 171.013 239.596 170.384 239.977C159.299 242.426 148.069 243.8 136.694 244.1C113.75 245.338 91.2119 243.021 69.0802 237.15C68.6055 236.815 68.0559 236.658 67.4311 236.679C57.1721 233.591 47.3558 229.468 37.9824 224.311C23.7954 215.133 13.0762 202.922 5.82446 187.676C1.55172 176.583 0.0596535 165.117 1.34826 153.28C1.53465 150.346 1.9273 147.441 2.52621 144.564C5.56062 132.555 9.4871 120.854 14.3057 109.461C23.6437 89.5978 36.7189 72.5962 53.5313 58.4557C64.5828 50.7305 76.5194 44.6052 89.3409 40.0797C95.7049 38.2808 102.144 36.8281 108.659 35.7213C101.691 42.0403 97.4894 49.8934 96.0552 59.2803C96.1061 74.3314 103.449 83.6371 118.083 87.1976C126.193 88.3704 133.496 86.4856 139.993 81.5435C145.794 76.1786 147.247 69.7784 144.351 62.3429C140.37 54.2478 133.891 50.4391 124.915 50.9168C121.536 51.6436 118.669 53.2537 116.316 55.7464C114.434 58.9356 115.258 61.0559 118.79 62.1073C119.261 61.9895 119.732 61.8717 120.203 61.754C125.503 56.5168 130.725 56.6346 135.87 62.1073C138.304 65.0025 139.089 68.3007 138.226 72.0021C137.628 73.7798 136.568 75.2327 135.045 76.3605C126.253 82.1536 117.693 81.8394 109.366 75.4181C104.661 70.8873 102.659 65.3509 103.358 58.8091C105.613 47.7267 112.013 40.2272 122.559 36.3103C128.056 34.1198 133.71 33.6487 139.521 34.8968C148.206 36.4293 156.766 38.4711 165.201 41.0221C176.956 45.4849 187.95 51.2961 198.183 58.4557C205.544 64.4418 212.14 71.1561 217.973 78.5986ZM61.3057 129.25C71.0674 133.384 80.6481 137.978 90.0476 143.032C91.4383 143.955 92.2629 145.251 92.5213 146.919C93.3372 152.972 92.0806 158.547 88.7519 163.646C84.3386 169.279 78.7236 170.968 71.9073 168.712C64.9423 165.12 60.5055 159.505 58.5965 151.867C57.3952 147.11 57.2383 142.319 58.1253 137.496C59.0563 134.692 60.1165 131.944 61.3057 129.25ZM189.938 129.25C190.533 129.724 190.965 130.352 191.233 131.135C196.083 142.338 194.905 152.861 187.699 162.704C184.654 166.445 180.767 168.761 176.038 169.654C170.57 170.041 166.211 168.039 162.963 163.646C159.109 157.81 158.088 151.527 159.9 144.799C160.332 144.053 160.921 143.464 161.667 143.032C170.982 138.099 180.406 133.505 189.938 129.25ZM146.825 198.985C145.937 199.045 145.073 198.967 144.233 198.749C143.523 198.551 142.894 198.197 142.348 197.689C136.895 193.117 131.398 188.602 125.857 184.143C120.317 188.602 114.82 193.117 109.366 197.689C108.82 198.197 108.192 198.551 107.481 198.749C106.642 198.967 105.778 199.045 104.89 198.985C102.148 197.795 101.245 195.753 102.18 192.859C108.549 187.277 115.067 181.859 121.734 176.604C121.88 176.38 121.841 176.184 121.617 176.015C118.466 174.812 117.563 172.652 118.907 169.536C119.817 168.42 120.995 167.792 122.441 167.651C124.719 167.965 126.996 167.965 129.273 167.651C132.81 168.285 134.066 170.326 133.043 173.777C132.774 174.274 132.421 174.705 131.983 175.072C131.189 175.39 130.482 175.821 129.862 176.368C136.188 181.712 142.588 186.973 149.063 192.153C150.646 195.218 149.9 197.495 146.825 198.985Z" fill="white"/>
<path d="M414.314 61.3291V167H396.981V94.6268L364.747 167H352.736L320.35 94.6268V167H303.017V61.3291H321.719L358.818 144.193L395.764 61.3291H414.314ZM431.318 124.732C431.318 116.319 433.041 108.868 436.487 102.381C440.035 95.8939 444.799 90.8764 450.779 87.3287C456.861 83.6796 463.551 81.8551 470.849 81.8551C477.438 81.8551 483.165 83.1728 488.03 85.8083C492.997 88.3423 496.95 91.5353 499.89 95.3871V83.2235H517.375V167H499.89V154.532C496.95 158.486 492.946 161.78 487.878 164.415C482.81 167.051 477.032 168.368 470.545 168.368C463.348 168.368 456.76 166.544 450.779 162.895C444.799 159.144 440.035 153.975 436.487 147.386C433.041 140.696 431.318 133.145 431.318 124.732ZM499.89 125.036C499.89 119.258 498.673 114.241 496.241 109.983C493.909 105.726 490.818 102.482 486.966 100.252C483.114 98.0225 478.958 96.9075 474.498 96.9075C470.038 96.9075 465.883 98.0225 462.031 100.252C458.179 102.381 455.037 105.574 452.604 109.831C450.273 113.987 449.107 118.954 449.107 124.732C449.107 130.509 450.273 135.577 452.604 139.936C455.037 144.295 458.179 147.64 462.031 149.971C465.984 152.201 470.14 153.316 474.498 153.316C478.958 153.316 483.114 152.201 486.966 149.971C490.818 147.741 493.909 144.497 496.241 140.24C498.673 135.882 499.89 130.813 499.89 125.036ZM534.364 124.732C534.364 116.319 536.087 108.868 539.533 102.381C543.081 95.8939 547.845 90.8764 553.825 87.3287C559.907 83.6796 566.648 81.8551 574.047 81.8551C579.521 81.8551 584.893 83.0715 590.164 85.5042C595.536 87.8355 599.793 90.9778 602.936 94.9309V54.4871H620.421V167H602.936V154.38C600.097 158.435 596.144 161.78 591.076 164.415C586.109 167.051 580.382 168.368 573.895 168.368C566.597 168.368 559.907 166.544 553.825 162.895C547.845 159.144 543.081 153.975 539.533 147.386C536.087 140.696 534.364 133.145 534.364 124.732ZM602.936 125.036C602.936 119.258 601.719 114.241 599.287 109.983C596.955 105.726 593.864 102.482 590.012 100.252C586.16 98.0225 582.004 96.9075 577.544 96.9075C573.084 96.9075 568.928 98.0225 565.077 100.252C561.225 102.381 558.082 105.574 555.65 109.831C553.318 113.987 552.153 118.954 552.153 124.732C552.153 130.509 553.318 135.577 555.65 139.936C558.082 144.295 561.225 147.64 565.077 149.971C569.03 152.201 573.186 153.316 577.544 153.316C582.004 153.316 586.16 152.201 590.012 149.971C593.864 147.741 596.955 144.497 599.287 140.24C601.719 135.882 602.936 130.813 602.936 125.036ZM651.093 60.2648V167H644.251V60.2648H651.093ZM703.695 168.216C694.471 168.216 686.919 166.189 681.04 162.135C675.262 158.08 672.019 152.302 671.309 144.802H678.303C678.81 150.174 681.243 154.431 685.601 157.573C690.061 160.715 696.092 162.287 703.695 162.287C709.979 162.287 714.946 160.715 718.595 157.573C722.345 154.33 724.221 150.376 724.221 145.714C724.221 142.47 723.207 139.835 721.18 137.807C719.254 135.679 716.821 134.057 713.882 132.942C710.942 131.827 706.938 130.611 701.87 129.293C695.788 127.671 690.872 126.1 687.122 124.58C683.371 122.958 680.178 120.576 677.543 117.434C674.908 114.291 673.59 110.085 673.59 104.814C673.59 100.962 674.756 97.4143 677.087 94.1707C679.418 90.8257 682.662 88.1903 686.818 86.2644C690.974 84.3385 695.687 83.3756 700.958 83.3756C709.574 83.3756 716.517 85.5549 721.788 89.9135C727.16 94.1707 730.049 100.1 730.455 107.703H723.613C723.308 102.229 721.18 97.7691 717.227 94.3228C713.273 90.8764 707.8 89.1532 700.806 89.1532C694.927 89.1532 690.061 90.6737 686.21 93.7146C682.358 96.7555 680.432 100.455 680.432 104.814C680.432 108.666 681.496 111.808 683.625 114.241C685.855 116.572 688.541 118.396 691.683 119.714C694.927 120.931 699.184 122.248 704.455 123.667C710.233 125.188 714.845 126.708 718.291 128.229C721.839 129.648 724.829 131.776 727.262 134.615C729.694 137.351 730.911 141.051 730.911 145.714C730.911 149.971 729.745 153.823 727.414 157.269C725.082 160.715 721.839 163.402 717.683 165.328C713.527 167.253 708.864 168.216 703.695 168.216ZM779.271 168.216C770.047 168.216 762.496 166.189 756.617 162.135C750.839 158.08 747.596 152.302 746.886 144.802H753.88C754.387 150.174 756.82 154.431 761.178 157.573C765.638 160.715 771.669 162.287 779.271 162.287C785.556 162.287 790.523 160.715 794.172 157.573C797.922 154.33 799.797 150.376 799.797 145.714C799.797 142.47 798.784 139.835 796.757 137.807C794.831 135.679 792.398 134.057 789.458 132.942C786.519 131.827 782.515 130.611 777.447 129.293C771.365 127.671 766.449 126.1 762.699 124.58C758.948 122.958 755.755 120.576 753.12 117.434C750.484 114.291 749.167 110.085 749.167 104.814C749.167 100.962 750.332 97.4143 752.664 94.1707C754.995 90.8257 758.239 88.1903 762.395 86.2644C766.55 84.3385 771.264 83.3756 776.535 83.3756C785.151 83.3756 792.094 85.5549 797.365 89.9135C802.737 94.1707 805.626 100.1 806.031 107.703H799.189C798.885 102.229 796.757 97.7691 792.803 94.3228C788.85 90.8764 783.377 89.1532 776.383 89.1532C770.504 89.1532 765.638 90.6737 761.786 93.7146C757.935 96.7555 756.009 100.455 756.009 104.814C756.009 108.666 757.073 111.808 759.202 114.241C761.432 116.572 764.118 118.396 767.26 119.714C770.504 120.931 774.761 122.248 780.032 123.667C785.809 125.188 790.421 126.708 793.868 128.229C797.415 129.648 800.406 131.776 802.838 134.615C805.271 137.351 806.487 141.051 806.487 145.714C806.487 149.971 805.322 153.823 802.99 157.269C800.659 160.715 797.415 163.402 793.26 165.328C789.104 167.253 784.441 168.216 779.271 168.216ZM897.117 84.4399V167H890.275V149.059C887.943 155.343 884.041 160.158 878.567 163.503C873.195 166.747 867.012 168.368 860.018 168.368C850.186 168.368 842.127 165.378 835.843 159.398C829.66 153.316 826.568 144.345 826.568 132.486V84.4399H833.258V132.03C833.258 141.862 835.741 149.414 840.708 154.684C845.675 159.854 852.416 162.439 860.93 162.439C869.85 162.439 876.945 159.601 882.216 153.924C887.588 148.248 890.275 139.835 890.275 128.685V84.4399H897.117ZM996.409 120.17C996.409 123.819 996.307 126.556 996.105 128.381H924.796C924.999 135.78 926.62 142.014 929.661 147.082C932.702 152.15 936.706 155.951 941.673 158.486C946.64 161.02 952.062 162.287 957.942 162.287C966.051 162.287 972.842 160.31 978.315 156.357C983.789 152.302 987.235 146.829 988.654 139.936H995.801C994.179 148.349 990.023 155.191 983.333 160.462C976.643 165.632 968.179 168.216 957.942 168.216C950.238 168.216 943.345 166.493 937.263 163.047C931.182 159.601 926.418 154.684 922.971 148.299C919.525 141.811 917.802 134.26 917.802 125.644C917.802 117.028 919.474 109.527 922.819 103.141C926.266 96.7555 931.03 91.89 937.111 88.5451C943.193 85.0987 950.137 83.3756 957.942 83.3756C965.848 83.3756 972.69 85.0987 978.467 88.5451C984.347 91.89 988.807 96.4007 991.847 102.077C994.888 107.652 996.409 113.683 996.409 120.17ZM989.567 122.755C989.871 115.457 988.553 109.274 985.614 104.206C982.775 99.1375 978.873 95.3871 973.906 92.9544C968.939 90.4203 963.567 89.1532 957.789 89.1532C952.012 89.1532 946.64 90.4203 941.673 92.9544C936.807 95.3871 932.803 99.1375 929.661 104.206C926.62 109.274 924.999 115.457 924.796 122.755H989.567ZM1044.61 168.216C1035.38 168.216 1027.83 166.189 1021.95 162.135C1016.17 158.08 1012.93 152.302 1012.22 144.802H1019.22C1019.72 150.174 1022.15 154.431 1026.51 157.573C1030.97 160.715 1037 162.287 1044.61 162.287C1050.89 162.287 1055.86 160.715 1059.51 157.573C1063.26 154.33 1065.13 150.376 1065.13 145.714C1065.13 142.47 1064.12 139.835 1062.09 137.807C1060.17 135.679 1057.73 134.057 1054.79 132.942C1051.85 131.827 1047.85 130.611 1042.78 129.293C1036.7 127.671 1031.78 126.1 1028.03 124.58C1024.28 122.958 1021.09 120.576 1018.46 117.434C1015.82 114.291 1014.5 110.085 1014.5 104.814C1014.5 100.962 1015.67 97.4143 1018 94.1707C1020.33 90.8257 1023.57 88.1903 1027.73 86.2644C1031.89 84.3385 1036.6 83.3756 1041.87 83.3756C1050.49 83.3756 1057.43 85.5549 1062.7 89.9135C1068.07 94.1707 1070.96 100.1 1071.37 107.703H1064.52C1064.22 102.229 1062.09 97.7691 1058.14 94.3228C1054.19 90.8764 1048.71 89.1532 1041.72 89.1532C1035.84 89.1532 1030.97 90.6737 1027.12 93.7146C1023.27 96.7555 1021.34 100.455 1021.34 104.814C1021.34 108.666 1022.41 111.808 1024.54 114.241C1026.77 116.572 1029.45 118.396 1032.6 119.714C1035.84 120.931 1040.1 122.248 1045.37 123.667C1051.14 125.188 1055.76 126.708 1059.2 128.229C1062.75 129.648 1065.74 131.776 1068.17 134.615C1070.61 137.351 1071.82 141.051 1071.82 145.714C1071.82 149.971 1070.66 153.823 1068.33 157.269C1065.99 160.715 1062.75 163.402 1058.59 165.328C1054.44 167.253 1049.78 168.216 1044.61 168.216Z" fill="white"/>
<path d="M318.638 198.045V201.25H307.917V236.675H304.048V201.25H293.272V198.045H318.638ZM339.115 205.948C341.4 205.948 343.445 206.427 345.25 207.385C347.092 208.343 348.529 209.816 349.56 211.806C350.629 213.759 351.163 216.153 351.163 218.99V236.675H347.35V219.433C347.35 216.153 346.521 213.648 344.863 211.917C343.242 210.185 341.013 209.319 338.176 209.319C335.265 209.319 332.944 210.24 331.213 212.082C329.481 213.924 328.615 216.632 328.615 220.206V236.675H324.747V195.779H328.615V211.64C329.573 209.835 330.973 208.435 332.815 207.44C334.694 206.445 336.794 205.948 339.115 205.948ZM387.019 220.04C387.019 221.367 386.983 222.38 386.909 223.08H361.874C361.985 225.364 362.537 227.317 363.532 228.938C364.527 230.559 365.835 231.793 367.456 232.641C369.077 233.451 370.845 233.857 372.761 233.857C375.267 233.857 377.367 233.249 379.061 232.033C380.793 230.817 381.935 229.177 382.488 227.114H386.577C385.84 230.062 384.256 232.475 381.825 234.354C379.43 236.196 376.409 237.117 372.761 237.117C369.924 237.117 367.382 236.491 365.135 235.238C362.887 233.949 361.119 232.143 359.829 229.822C358.577 227.464 357.95 224.719 357.95 221.588C357.95 218.456 358.577 215.711 359.829 213.353C361.082 210.995 362.832 209.19 365.079 207.937C367.327 206.685 369.887 206.058 372.761 206.058C375.635 206.058 378.14 206.685 380.277 207.937C382.451 209.19 384.109 210.885 385.251 213.022C386.43 215.122 387.019 217.461 387.019 220.04ZM383.096 219.93C383.133 217.682 382.672 215.767 381.714 214.182C380.793 212.598 379.522 211.401 377.901 210.59C376.28 209.78 374.511 209.374 372.595 209.374C369.722 209.374 367.272 210.295 365.245 212.138C363.219 213.98 362.095 216.577 361.874 219.93H383.096ZM419.984 232.917L430.153 206.501H434.242L422.139 236.675H417.773L405.67 206.501H409.815L419.984 232.917ZM452.694 237.117C449.857 237.117 447.296 236.491 445.012 235.238C442.764 233.949 440.978 232.143 439.651 229.822C438.362 227.464 437.717 224.719 437.717 221.588C437.717 218.456 438.38 215.73 439.706 213.409C441.033 211.051 442.838 209.245 445.122 207.993C447.407 206.703 449.967 206.058 452.804 206.058C455.641 206.058 458.202 206.703 460.486 207.993C462.807 209.245 464.612 211.051 465.902 213.409C467.228 215.73 467.891 218.456 467.891 221.588C467.891 224.683 467.228 227.409 465.902 229.767C464.575 232.125 462.752 233.949 460.431 235.238C458.11 236.491 455.531 237.117 452.694 237.117ZM452.694 233.746C454.683 233.746 456.525 233.304 458.22 232.42C459.915 231.499 461.278 230.135 462.31 228.33C463.378 226.488 463.912 224.241 463.912 221.588C463.912 218.935 463.396 216.706 462.365 214.901C461.333 213.059 459.97 211.695 458.275 210.811C456.581 209.89 454.738 209.43 452.749 209.43C450.759 209.43 448.917 209.89 447.222 210.811C445.528 211.695 444.164 213.059 443.133 214.901C442.138 216.706 441.641 218.935 441.641 221.588C441.641 224.241 442.138 226.488 443.133 228.33C444.164 230.135 445.509 231.499 447.167 232.42C448.862 233.304 450.704 233.746 452.694 233.746ZM476.877 200.808C476.104 200.808 475.441 200.532 474.888 199.979C474.335 199.427 474.059 198.745 474.059 197.935C474.059 197.124 474.335 196.461 474.888 195.945C475.441 195.392 476.104 195.116 476.877 195.116C477.651 195.116 478.314 195.392 478.867 195.945C479.42 196.461 479.696 197.124 479.696 197.935C479.696 198.745 479.42 199.427 478.867 199.979C478.314 200.532 477.651 200.808 476.877 200.808ZM478.812 206.501V236.675H474.943V206.501H478.812ZM485.804 221.588C485.804 218.456 486.43 215.73 487.683 213.409C488.935 211.051 490.667 209.245 492.877 207.993C495.088 206.703 497.612 206.058 500.449 206.058C504.17 206.058 507.228 206.98 509.623 208.822C512.054 210.664 513.62 213.169 514.32 216.338H510.175C509.659 214.164 508.536 212.469 506.804 211.253C505.109 210.001 502.991 209.374 500.449 209.374C498.422 209.374 496.599 209.835 494.977 210.756C493.356 211.677 492.067 213.059 491.109 214.901C490.188 216.706 489.727 218.935 489.727 221.588C489.727 224.241 490.188 226.488 491.109 228.33C492.067 230.172 493.356 231.554 494.977 232.475C496.599 233.396 498.422 233.857 500.449 233.857C502.991 233.857 505.109 233.249 506.804 232.033C508.536 230.78 509.659 229.049 510.175 226.838H514.32C513.62 229.933 512.054 232.42 509.623 234.299C507.191 236.178 504.133 237.117 500.449 237.117C497.612 237.117 495.088 236.491 492.877 235.238C490.667 233.949 488.935 232.143 487.683 229.822C486.43 227.464 485.804 224.719 485.804 221.588ZM548.765 220.04C548.765 221.367 548.729 222.38 548.655 223.08H523.62C523.731 225.364 524.283 227.317 525.278 228.938C526.273 230.559 527.581 231.793 529.202 232.641C530.823 233.451 532.591 233.857 534.507 233.857C537.012 233.857 539.113 233.249 540.807 232.033C542.539 230.817 543.681 229.177 544.234 227.114H548.323C547.586 230.062 546.002 232.475 543.571 234.354C541.176 236.196 538.155 237.117 534.507 237.117C531.67 237.117 529.128 236.491 526.881 235.238C524.633 233.949 522.865 232.143 521.575 229.822C520.323 227.464 519.696 224.719 519.696 221.588C519.696 218.456 520.323 215.711 521.575 213.353C522.828 210.995 524.578 209.19 526.825 207.937C529.073 206.685 531.633 206.058 534.507 206.058C537.381 206.058 539.886 206.685 542.023 207.937C544.197 209.19 545.855 210.885 546.997 213.022C548.176 215.122 548.765 217.461 548.765 220.04ZM544.842 219.93C544.878 217.682 544.418 215.767 543.46 214.182C542.539 212.598 541.268 211.401 539.647 210.59C538.026 209.78 536.257 209.374 534.341 209.374C531.468 209.374 529.018 210.295 526.991 212.138C524.965 213.98 523.841 216.577 523.62 219.93H544.842ZM584.217 237.117C581.38 237.117 578.819 236.491 576.535 235.238C574.288 233.949 572.501 232.143 571.174 229.822C569.885 227.464 569.24 224.719 569.24 221.588C569.24 218.456 569.903 215.73 571.23 213.409C572.556 211.051 574.361 209.245 576.645 207.993C578.93 206.703 581.49 206.058 584.327 206.058C587.164 206.058 589.725 206.703 592.009 207.993C594.33 209.245 596.135 211.051 597.425 213.409C598.751 215.73 599.414 218.456 599.414 221.588C599.414 224.683 598.751 227.409 597.425 229.767C596.099 232.125 594.275 233.949 591.954 235.238C589.633 236.491 587.054 237.117 584.217 237.117ZM584.217 233.746C586.206 233.746 588.048 233.304 589.743 232.42C591.438 231.499 592.801 230.135 593.833 228.33C594.901 226.488 595.435 224.241 595.435 221.588C595.435 218.935 594.92 216.706 593.888 214.901C592.856 213.059 591.493 211.695 589.798 210.811C588.104 209.89 586.262 209.43 584.272 209.43C582.282 209.43 580.44 209.89 578.746 210.811C577.051 211.695 575.688 213.059 574.656 214.901C573.661 216.706 573.164 218.935 573.164 221.588C573.164 224.241 573.661 226.488 574.656 228.33C575.688 230.135 577.032 231.499 578.69 232.42C580.385 233.304 582.227 233.746 584.217 233.746ZM618.348 209.761H611.33V236.675H607.461V209.761H603.261V206.501H607.461V204.401C607.461 201.122 608.29 198.708 609.948 197.161C611.643 195.613 614.369 194.84 618.127 194.84V198.156C615.622 198.156 613.853 198.635 612.822 199.593C611.827 200.55 611.33 202.153 611.33 204.401V206.501H618.348V209.761ZM649.993 237.117C646.53 237.117 643.693 236.325 641.482 234.741C639.309 233.12 638.093 230.928 637.835 228.164H641.814C641.998 229.859 642.79 231.241 644.19 232.309C645.627 233.341 647.543 233.857 649.938 233.857C652.038 233.857 653.677 233.359 654.856 232.364C656.072 231.37 656.68 230.135 656.68 228.662C656.68 227.63 656.349 226.783 655.685 226.12C655.022 225.456 654.175 224.941 653.143 224.572C652.148 224.167 650.785 223.743 649.054 223.301C646.806 222.712 644.983 222.122 643.582 221.533C642.182 220.943 640.985 220.077 639.99 218.935C639.032 217.756 638.553 216.19 638.553 214.238C638.553 212.764 638.996 211.401 639.88 210.148C640.764 208.895 642.017 207.901 643.638 207.164C645.259 206.427 647.101 206.058 649.164 206.058C652.406 206.058 655.022 206.887 657.012 208.545C659.001 210.166 660.07 212.414 660.217 215.288H656.349C656.238 213.519 655.538 212.101 654.249 211.032C652.996 209.927 651.264 209.374 649.054 209.374C647.101 209.374 645.517 209.835 644.301 210.756C643.085 211.677 642.477 212.819 642.477 214.182C642.477 215.361 642.827 216.338 643.527 217.111C644.264 217.848 645.167 218.438 646.235 218.88C647.304 219.285 648.741 219.746 650.546 220.261C652.72 220.851 654.451 221.422 655.741 221.975C657.03 222.527 658.135 223.338 659.057 224.406C659.978 225.475 660.457 226.893 660.493 228.662C660.493 230.283 660.051 231.738 659.167 233.028C658.283 234.28 657.049 235.275 655.464 236.012C653.88 236.749 652.056 237.117 649.993 237.117ZM672.804 209.761V228.496C672.804 230.338 673.154 231.609 673.855 232.309C674.555 233.009 675.789 233.359 677.557 233.359H681.094V236.675H676.949C674.223 236.675 672.197 236.049 670.87 234.796C669.544 233.507 668.881 231.406 668.881 228.496V209.761H664.681V206.501H668.881V198.929H672.804V206.501H681.094V209.761H672.804ZM713.614 206.501V236.675H709.746V231.37C708.862 233.249 707.498 234.686 705.656 235.68C703.814 236.675 701.751 237.172 699.467 237.172C695.856 237.172 692.909 236.067 690.624 233.857C688.34 231.609 687.198 228.367 687.198 224.13V206.501H691.011V223.688C691.011 226.967 691.822 229.472 693.443 231.204C695.101 232.935 697.348 233.801 700.185 233.801C703.096 233.801 705.417 232.88 707.148 231.038C708.88 229.196 709.746 226.488 709.746 222.914V206.501H713.614ZM720.678 221.533C720.678 218.438 721.304 215.73 722.557 213.409C723.809 211.051 725.523 209.245 727.696 207.993C729.907 206.703 732.394 206.058 735.157 206.058C737.81 206.058 740.205 206.703 742.342 207.993C744.478 209.282 746.044 210.959 747.039 213.022V195.779H750.908V236.675H747.039V229.933C746.118 232.033 744.607 233.764 742.507 235.128C740.407 236.454 737.939 237.117 735.102 237.117C732.339 237.117 729.852 236.472 727.641 235.183C725.467 233.893 723.754 232.07 722.502 229.712C721.286 227.354 720.678 224.627 720.678 221.533ZM747.039 221.588C747.039 219.156 746.542 217.019 745.547 215.177C744.552 213.335 743.189 211.917 741.457 210.922C739.763 209.927 737.884 209.43 735.82 209.43C733.683 209.43 731.768 209.909 730.073 210.867C728.378 211.824 727.033 213.224 726.038 215.067C725.081 216.872 724.602 219.027 724.602 221.533C724.602 224.001 725.081 226.175 726.038 228.054C727.033 229.896 728.378 231.314 730.073 232.309C731.768 233.267 733.683 233.746 735.82 233.746C737.884 233.746 739.763 233.249 741.457 232.254C743.189 231.259 744.552 229.841 745.547 227.999C746.542 226.156 747.039 224.019 747.039 221.588ZM787.04 220.04C787.04 221.367 787.003 222.38 786.929 223.08H761.894C762.005 225.364 762.558 227.317 763.552 228.938C764.547 230.559 765.855 231.793 767.476 232.641C769.097 233.451 770.866 233.857 772.781 233.857C775.287 233.857 777.387 233.249 779.082 232.033C780.813 230.817 781.955 229.177 782.508 227.114H786.598C785.861 230.062 784.276 232.475 781.845 234.354C779.45 236.196 776.429 237.117 772.781 237.117C769.945 237.117 767.402 236.491 765.155 235.238C762.908 233.949 761.139 232.143 759.85 229.822C758.597 227.464 757.971 224.719 757.971 221.588C757.971 218.456 758.597 215.711 759.85 213.353C761.102 210.995 762.852 209.19 765.1 207.937C767.347 206.685 769.908 206.058 772.781 206.058C775.655 206.058 778.161 206.685 780.297 207.937C782.471 209.19 784.129 210.885 785.271 213.022C786.45 215.122 787.04 217.461 787.04 220.04ZM783.116 219.93C783.153 217.682 782.692 215.767 781.734 214.182C780.813 212.598 779.542 211.401 777.921 210.59C776.3 209.78 774.532 209.374 772.616 209.374C769.742 209.374 767.292 210.295 765.265 212.138C763.239 213.98 762.115 216.577 761.894 219.93H783.116ZM808.265 205.948C811.876 205.948 814.823 207.072 817.107 209.319C819.392 211.53 820.534 214.753 820.534 218.99V236.675H816.721V219.433C816.721 216.153 815.892 213.648 814.234 211.917C812.613 210.185 810.384 209.319 807.547 209.319C804.636 209.319 802.315 210.24 800.583 212.082C798.852 213.924 797.986 216.632 797.986 220.206V236.675H794.117V206.501H797.986V211.64C798.944 209.798 800.326 208.398 802.131 207.44C803.936 206.445 805.981 205.948 808.265 205.948ZM834.119 209.761V228.496C834.119 230.338 834.469 231.609 835.169 232.309C835.869 233.009 837.103 233.359 838.871 233.359H842.408V236.675H838.263C835.537 236.675 833.511 236.049 832.184 234.796C830.858 233.507 830.195 231.406 830.195 228.496V209.761H825.995V206.501H830.195V198.929H834.119V206.501H842.408V209.761H834.119ZM859.178 237.117C855.715 237.117 852.878 236.325 850.667 234.741C848.494 233.12 847.278 230.928 847.02 228.164H850.999C851.183 229.859 851.975 231.241 853.375 232.309C854.812 233.341 856.728 233.857 859.123 233.857C861.223 233.857 862.862 233.359 864.041 232.364C865.257 231.37 865.865 230.135 865.865 228.662C865.865 227.63 865.534 226.783 864.87 226.12C864.207 225.456 863.36 224.941 862.328 224.572C861.333 224.167 859.97 223.743 858.239 223.301C855.991 222.712 854.167 222.122 852.767 221.533C851.367 220.943 850.17 220.077 849.175 218.935C848.217 217.756 847.738 216.19 847.738 214.238C847.738 212.764 848.18 211.401 849.065 210.148C849.949 208.895 851.202 207.901 852.823 207.164C854.444 206.427 856.286 206.058 858.349 206.058C861.591 206.058 864.207 206.887 866.197 208.545C868.186 210.166 869.255 212.414 869.402 215.288H865.534C865.423 213.519 864.723 212.101 863.433 211.032C862.181 209.927 860.449 209.374 858.239 209.374C856.286 209.374 854.702 209.835 853.486 210.756C852.27 211.677 851.662 212.819 851.662 214.182C851.662 215.361 852.012 216.338 852.712 217.111C853.449 217.848 854.352 218.438 855.42 218.88C856.489 219.285 857.925 219.746 859.731 220.261C861.904 220.851 863.636 221.422 864.926 221.975C866.215 222.527 867.32 223.338 868.241 224.406C869.163 225.475 869.642 226.893 869.678 228.662C869.678 230.283 869.236 231.738 868.352 233.028C867.468 234.28 866.234 235.275 864.649 236.012C863.065 236.749 861.241 237.117 859.178 237.117Z" fill="white"/>
</svg>
