<svg width="420" height="411" viewBox="0 0 420 411" fill="none" xmlns="http://www.w3.org/2000/svg">
<path d="M65.3155 305.502V361.752H56.0888V323.227L38.9303 361.752H32.5364L15.2969 323.227V361.752H6.07021V305.502H16.0254L35.7738 349.612L55.4413 305.502H65.3155ZM74.3671 339.252C74.3671 334.774 75.2844 330.808 77.1189 327.354C79.0074 323.901 81.5434 321.23 84.7269 319.342C87.9644 317.399 91.5256 316.428 95.4105 316.428C98.9177 316.428 101.966 317.129 104.556 318.532C107.2 319.881 109.305 321.581 110.869 323.631V317.156H120.177V361.752H110.869V355.116C109.305 357.22 107.173 358.974 104.475 360.376C101.777 361.779 98.7019 362.481 95.2486 362.481C91.4176 362.481 87.9104 361.51 84.7269 359.567C81.5434 357.571 79.0074 354.819 77.1189 351.312C75.2844 347.75 74.3671 343.731 74.3671 339.252ZM110.869 339.414C110.869 336.338 110.222 333.667 108.927 331.401C107.686 329.135 106.04 327.408 103.99 326.221C101.939 325.034 99.7271 324.441 97.353 324.441C94.9788 324.441 92.7666 325.034 90.7162 326.221C88.6658 327.354 86.9931 329.054 85.6982 331.32C84.4571 333.533 83.8366 336.176 83.8366 339.252C83.8366 342.328 84.4571 345.026 85.6982 347.346C86.9931 349.666 88.6658 351.446 90.7162 352.687C92.8205 353.875 95.0328 354.468 97.353 354.468C99.7271 354.468 101.939 353.875 103.99 352.687C106.04 351.5 107.686 349.774 108.927 347.508C110.222 345.187 110.869 342.49 110.869 339.414ZM129.22 339.252C129.22 334.774 130.138 330.808 131.972 327.354C133.861 323.901 136.397 321.23 139.58 319.342C142.818 317.399 146.406 316.428 150.345 316.428C153.258 316.428 156.118 317.076 158.924 318.371C161.784 319.612 164.05 321.284 165.723 323.389V301.86H175.03V361.752H165.723V355.035C164.212 357.193 162.107 358.974 159.41 360.376C156.766 361.779 153.717 362.481 150.264 362.481C146.379 362.481 142.818 361.51 139.58 359.567C136.397 357.571 133.861 354.819 131.972 351.312C130.138 347.75 129.22 343.731 129.22 339.252ZM165.723 339.414C165.723 336.338 165.075 333.667 163.78 331.401C162.539 329.135 160.893 327.408 158.843 326.221C156.793 325.034 154.58 324.441 152.206 324.441C149.832 324.441 147.62 325.034 145.569 326.221C143.519 327.354 141.846 329.054 140.551 331.32C139.31 333.533 138.69 336.176 138.69 339.252C138.69 342.328 139.31 345.026 140.551 347.346C141.846 349.666 143.519 351.446 145.569 352.687C147.674 353.875 149.886 354.468 152.206 354.468C154.58 354.468 156.793 353.875 158.843 352.687C160.893 351.5 162.539 349.774 163.78 347.508C165.075 345.187 165.723 342.49 165.723 339.414ZM191.358 304.935V361.752H187.716V304.935H191.358ZM219.359 362.4C214.448 362.4 210.429 361.321 207.299 359.162C204.224 357.004 202.497 353.928 202.119 349.936H205.842C206.112 352.795 207.407 355.062 209.727 356.734C212.101 358.407 215.312 359.243 219.359 359.243C222.704 359.243 225.348 358.407 227.29 356.734C229.287 355.008 230.285 352.903 230.285 350.421C230.285 348.695 229.745 347.292 228.666 346.213C227.641 345.079 226.346 344.216 224.781 343.623C223.217 343.029 221.085 342.382 218.387 341.68C215.15 340.817 212.533 339.98 210.537 339.171C208.54 338.308 206.84 337.04 205.438 335.367C204.035 333.694 203.333 331.455 203.333 328.649C203.333 326.599 203.954 324.711 205.195 322.984C206.436 321.203 208.162 319.8 210.375 318.775C212.587 317.75 215.096 317.237 217.902 317.237C222.488 317.237 226.184 318.397 228.99 320.718C231.85 322.984 233.388 326.14 233.603 330.187H229.961C229.799 327.273 228.666 324.899 226.562 323.065C224.458 321.23 221.544 320.313 217.821 320.313C214.691 320.313 212.101 321.122 210.051 322.741C208.001 324.36 206.975 326.329 206.975 328.649C206.975 330.7 207.542 332.372 208.675 333.667C209.862 334.908 211.292 335.88 212.965 336.581C214.691 337.229 216.957 337.93 219.763 338.686C222.839 339.495 225.294 340.304 227.128 341.114C229.017 341.869 230.609 343.002 231.904 344.513C233.199 345.97 233.846 347.939 233.846 350.421C233.846 352.687 233.226 354.738 231.985 356.572C230.744 358.407 229.017 359.837 226.805 360.862C224.592 361.887 222.11 362.4 219.359 362.4ZM259.59 362.4C254.679 362.4 250.66 361.321 247.53 359.162C244.454 357.004 242.728 353.928 242.35 349.936H246.073C246.343 352.795 247.638 355.062 249.958 356.734C252.332 358.407 255.543 359.243 259.59 359.243C262.935 359.243 265.579 358.407 267.521 356.734C269.518 355.008 270.516 352.903 270.516 350.421C270.516 348.695 269.976 347.292 268.897 346.213C267.872 345.079 266.577 344.216 265.012 343.623C263.448 343.029 261.316 342.382 258.618 341.68C255.381 340.817 252.764 339.98 250.768 339.171C248.771 338.308 247.071 337.04 245.669 335.367C244.266 333.694 243.564 331.455 243.564 328.649C243.564 326.599 244.185 324.711 245.426 322.984C246.667 321.203 248.393 319.8 250.606 318.775C252.818 317.75 255.327 317.237 258.133 317.237C262.719 317.237 266.415 318.397 269.221 320.718C272.081 322.984 273.619 326.14 273.834 330.187H270.192C270.03 327.273 268.897 324.899 266.793 323.065C264.689 321.23 261.775 320.313 258.052 320.313C254.922 320.313 252.332 321.122 250.282 322.741C248.232 324.36 247.206 326.329 247.206 328.649C247.206 330.7 247.773 332.372 248.906 333.667C250.093 334.908 251.523 335.88 253.196 336.581C254.922 337.229 257.188 337.93 259.994 338.686C263.07 339.495 265.525 340.304 267.359 341.114C269.248 341.869 270.84 343.002 272.135 344.513C273.43 345.97 274.077 347.939 274.077 350.421C274.077 352.687 273.457 354.738 272.216 356.572C270.975 358.407 269.248 359.837 267.036 360.862C264.823 361.887 262.341 362.4 259.59 362.4ZM322.321 317.804V361.752H318.679V352.202C317.438 355.547 315.36 358.11 312.447 359.891C309.587 361.617 306.295 362.481 302.572 362.481C297.339 362.481 293.049 360.889 289.704 357.706C286.412 354.468 284.766 349.693 284.766 343.38V317.804H288.328V343.137C288.328 348.371 289.65 352.391 292.293 355.196C294.937 357.948 298.526 359.324 303.058 359.324C307.806 359.324 311.583 357.813 314.389 354.792C317.249 351.77 318.679 347.292 318.679 341.356V317.804H322.321ZM375.176 336.824C375.176 338.766 375.122 340.223 375.014 341.195H337.055C337.163 345.133 338.026 348.452 339.645 351.15C341.264 353.848 343.395 355.871 346.039 357.22C348.683 358.569 351.57 359.243 354.699 359.243C359.016 359.243 362.631 358.191 365.545 356.087C368.458 353.928 370.293 351.015 371.048 347.346H374.852C373.989 351.824 371.777 355.466 368.215 358.272C364.654 361.024 360.149 362.4 354.699 362.4C350.598 362.4 346.929 361.483 343.692 359.648C340.454 357.813 337.918 355.196 336.084 351.797C334.249 348.344 333.332 344.324 333.332 339.738C333.332 335.151 334.222 331.158 336.003 327.759C337.837 324.36 340.373 321.77 343.611 319.989C346.848 318.155 350.544 317.237 354.699 317.237C358.908 317.237 362.55 318.155 365.625 319.989C368.755 321.77 371.129 324.171 372.748 327.193C374.367 330.16 375.176 333.371 375.176 336.824ZM371.534 338.2C371.696 334.315 370.994 331.024 369.429 328.326C367.919 325.628 365.841 323.631 363.197 322.336C360.553 320.987 357.694 320.313 354.618 320.313C351.543 320.313 348.683 320.987 346.039 322.336C343.449 323.631 341.318 325.628 339.645 328.326C338.026 331.024 337.163 334.315 337.055 338.2H371.534ZM400.833 362.4C395.923 362.4 391.903 361.321 388.773 359.162C385.698 357.004 383.971 353.928 383.593 349.936H387.316C387.586 352.795 388.881 355.062 391.201 356.734C393.575 358.407 396.786 359.243 400.833 359.243C404.178 359.243 406.822 358.407 408.764 356.734C410.761 355.008 411.759 352.903 411.759 350.421C411.759 348.695 411.22 347.292 410.14 346.213C409.115 345.079 407.82 344.216 406.255 343.623C404.691 343.029 402.559 342.382 399.861 341.68C396.624 340.817 394.007 339.98 392.011 339.171C390.014 338.308 388.315 337.04 386.912 335.367C385.509 333.694 384.807 331.455 384.807 328.649C384.807 326.599 385.428 324.711 386.669 322.984C387.91 321.203 389.637 319.8 391.849 318.775C394.061 317.75 396.57 317.237 399.376 317.237C403.962 317.237 407.658 318.397 410.464 320.718C413.324 322.984 414.862 326.14 415.077 330.187H411.435C411.273 327.273 410.14 324.899 408.036 323.065C405.932 321.23 403.018 320.313 399.295 320.313C396.165 320.313 393.575 321.122 391.525 322.741C389.475 324.36 388.449 326.329 388.449 328.649C388.449 330.7 389.016 332.372 390.149 333.667C391.336 334.908 392.766 335.88 394.439 336.581C396.165 337.229 398.432 337.93 401.237 338.686C404.313 339.495 406.768 340.304 408.603 341.114C410.491 341.869 412.083 343.002 413.378 344.513C414.673 345.97 415.32 347.939 415.32 350.421C415.32 352.687 414.7 354.738 413.459 356.572C412.218 358.407 410.491 359.837 408.279 360.862C406.067 361.887 403.585 362.4 400.833 362.4Z" fill="white"/>
<path d="M14.3856 377.339V379.046H8.67842V397.903H6.61914V379.046H0.882552V377.339H14.3856ZM25.286 381.546C26.502 381.546 27.5905 381.801 28.5515 382.311C29.5321 382.821 30.297 383.605 30.8461 384.664C31.4148 385.704 31.6992 386.979 31.6992 388.489V397.903H29.6694V388.724C29.6694 386.979 29.2281 385.645 28.3455 384.723C27.4826 383.802 26.2961 383.341 24.7859 383.341C23.2365 383.341 22.001 383.831 21.0792 384.812C20.1574 385.792 19.6965 387.234 19.6965 389.136V397.903H17.6372V376.133H19.6965V384.576C20.2064 383.615 20.9517 382.87 21.9323 382.34C22.9325 381.811 24.0504 381.546 25.286 381.546ZM50.7862 389.048C50.7862 389.754 50.7666 390.293 50.7274 390.666H37.4009C37.4597 391.882 37.7539 392.921 38.2834 393.784C38.813 394.647 39.5092 395.304 40.3721 395.755C41.2351 396.187 42.1765 396.402 43.1963 396.402C44.5299 396.402 45.6478 396.079 46.55 395.432C47.4718 394.784 48.0798 393.912 48.3739 392.813H50.5509C50.1586 394.382 49.3153 395.667 48.0209 396.667C46.7461 397.648 45.1379 398.138 43.1963 398.138C41.6862 398.138 40.3329 397.805 39.1366 397.138C37.9402 396.451 36.9988 395.49 36.3124 394.255C35.6456 393 35.3122 391.539 35.3122 389.872C35.3122 388.205 35.6456 386.743 36.3124 385.488C36.9792 384.233 37.9108 383.272 39.1071 382.605C40.3035 381.938 41.6665 381.605 43.1963 381.605C44.7261 381.605 46.0597 381.938 47.1972 382.605C48.3543 383.272 49.2369 384.174 49.8449 385.312C50.4724 386.43 50.7862 387.675 50.7862 389.048ZM48.6975 388.989C48.7171 387.793 48.472 386.773 47.9621 385.929C47.4718 385.086 46.7951 384.449 45.9322 384.017C45.0693 383.586 44.1279 383.37 43.108 383.37C41.5783 383.37 40.2741 383.86 39.1954 384.841C38.1167 385.822 37.5186 387.204 37.4009 388.989H48.6975ZM68.3338 395.902L73.7468 381.84H75.9238L69.4812 397.903H67.1571L60.7145 381.84H62.9209L68.3338 395.902ZM85.7459 398.138C84.2357 398.138 82.8727 397.805 81.6567 397.138C80.4604 396.451 79.5092 395.49 78.8031 394.255C78.1167 393 77.7735 391.539 77.7735 389.872C77.7735 388.205 78.1265 386.753 78.8325 385.518C79.5386 384.262 80.4996 383.301 81.7155 382.635C82.9315 381.948 84.2945 381.605 85.8047 381.605C87.3148 381.605 88.6779 381.948 89.8938 382.635C91.1294 383.301 92.0904 384.262 92.7768 385.518C93.4829 386.753 93.8359 388.205 93.8359 389.872C93.8359 391.519 93.4829 392.97 92.7768 394.225C92.0708 395.481 91.1 396.451 89.8644 397.138C88.6289 397.805 87.256 398.138 85.7459 398.138ZM85.7459 396.344C86.8049 396.344 87.7855 396.108 88.6877 395.638C89.5899 395.147 90.3155 394.422 90.8647 393.461C91.4334 392.48 91.7178 391.284 91.7178 389.872C91.7178 388.459 91.4432 387.273 90.8941 386.312C90.3449 385.331 89.6193 384.606 88.7171 384.135C87.8149 383.645 86.8343 383.4 85.7753 383.4C84.7162 383.4 83.7356 383.645 82.8334 384.135C81.9313 384.606 81.2056 385.331 80.6565 386.312C80.1269 387.273 79.8622 388.459 79.8622 389.872C79.8622 391.284 80.1269 392.48 80.6565 393.461C81.2056 394.422 81.9215 395.147 82.804 395.638C83.7062 396.108 84.6868 396.344 85.7459 396.344ZM98.6194 378.81C98.2075 378.81 97.8545 378.663 97.5603 378.369C97.2661 378.075 97.119 377.712 97.119 377.28C97.119 376.849 97.2661 376.496 97.5603 376.221C97.8545 375.927 98.2075 375.78 98.6194 375.78C99.0312 375.78 99.3843 375.927 99.6784 376.221C99.9726 376.496 100.12 376.849 100.12 377.28C100.12 377.712 99.9726 378.075 99.6784 378.369C99.3843 378.663 99.0312 378.81 98.6194 378.81ZM99.649 381.84V397.903H97.5897V381.84H99.649ZM103.371 389.872C103.371 388.205 103.704 386.753 104.371 385.518C105.038 384.262 105.96 383.301 107.136 382.635C108.313 381.948 109.657 381.605 111.167 381.605C113.148 381.605 114.775 382.095 116.05 383.076C117.345 384.057 118.178 385.39 118.551 387.077H116.344C116.07 385.92 115.472 385.018 114.55 384.37C113.648 383.703 112.52 383.37 111.167 383.37C110.088 383.37 109.117 383.615 108.254 384.106C107.391 384.596 106.705 385.331 106.195 386.312C105.705 387.273 105.46 388.459 105.46 389.872C105.46 391.284 105.705 392.48 106.195 393.461C106.705 394.441 107.391 395.177 108.254 395.667C109.117 396.157 110.088 396.402 111.167 396.402C112.52 396.402 113.648 396.079 114.55 395.432C115.472 394.765 116.07 393.843 116.344 392.666H118.551C118.178 394.314 117.345 395.638 116.05 396.638C114.756 397.638 113.128 398.138 111.167 398.138C109.657 398.138 108.313 397.805 107.136 397.138C105.96 396.451 105.038 395.49 104.371 394.255C103.704 393 103.371 391.539 103.371 389.872ZM136.887 389.048C136.887 389.754 136.867 390.293 136.828 390.666H123.501C123.56 391.882 123.854 392.921 124.384 393.784C124.913 394.647 125.61 395.304 126.473 395.755C127.336 396.187 128.277 396.402 129.297 396.402C130.63 396.402 131.748 396.079 132.65 395.432C133.572 394.784 134.18 393.912 134.474 392.813H136.651C136.259 394.382 135.416 395.667 134.121 396.667C132.847 397.648 131.238 398.138 129.297 398.138C127.787 398.138 126.433 397.805 125.237 397.138C124.041 396.451 123.099 395.49 122.413 394.255C121.746 393 121.413 391.539 121.413 389.872C121.413 388.205 121.746 386.743 122.413 385.488C123.08 384.233 124.011 383.272 125.208 382.605C126.404 381.938 127.767 381.605 129.297 381.605C130.827 381.605 132.16 381.938 133.298 382.605C134.455 383.272 135.337 384.174 135.945 385.312C136.573 386.43 136.887 387.675 136.887 389.048ZM134.798 388.989C134.818 387.793 134.572 386.773 134.063 385.929C133.572 385.086 132.896 384.449 132.033 384.017C131.17 383.586 130.228 383.37 129.209 383.37C127.679 383.37 126.375 383.86 125.296 384.841C124.217 385.822 123.619 387.204 123.501 388.989H134.798ZM155.758 398.138C154.248 398.138 152.885 397.805 151.669 397.138C150.473 396.451 149.521 395.49 148.815 394.255C148.129 393 147.786 391.539 147.786 389.872C147.786 388.205 148.139 386.753 148.845 385.518C149.551 384.262 150.512 383.301 151.728 382.635C152.944 381.948 154.307 381.605 155.817 381.605C157.327 381.605 158.69 381.948 159.906 382.635C161.142 383.301 162.103 384.262 162.789 385.518C163.495 386.753 163.848 388.205 163.848 389.872C163.848 391.519 163.495 392.97 162.789 394.225C162.083 395.481 161.112 396.451 159.877 397.138C158.641 397.805 157.268 398.138 155.758 398.138ZM155.758 396.344C156.817 396.344 157.798 396.108 158.7 395.638C159.602 395.147 160.328 394.422 160.877 393.461C161.446 392.48 161.73 391.284 161.73 389.872C161.73 388.459 161.456 387.273 160.906 386.312C160.357 385.331 159.632 384.606 158.729 384.135C157.827 383.645 156.847 383.4 155.788 383.4C154.729 383.4 153.748 383.645 152.846 384.135C151.944 384.606 151.218 385.331 150.669 386.312C150.139 387.273 149.874 388.459 149.874 389.872C149.874 391.284 150.139 392.48 150.669 393.461C151.218 394.422 151.934 395.147 152.816 395.638C153.718 396.108 154.699 396.344 155.758 396.344ZM173.927 383.576H170.191V397.903H168.132V383.576H165.896V381.84H168.132V380.722C168.132 378.977 168.573 377.692 169.455 376.869C170.358 376.045 171.809 375.633 173.809 375.633V377.398C172.476 377.398 171.534 377.653 170.985 378.163C170.456 378.673 170.191 379.526 170.191 380.722V381.84H173.927V383.576ZM190.772 398.138C188.929 398.138 187.419 397.716 186.242 396.873C185.085 396.01 184.437 394.843 184.3 393.372H186.418C186.516 394.275 186.938 395.01 187.683 395.579C188.448 396.128 189.468 396.402 190.743 396.402C191.861 396.402 192.733 396.138 193.361 395.608C194.008 395.079 194.332 394.422 194.332 393.637C194.332 393.088 194.155 392.637 193.802 392.284C193.449 391.931 192.998 391.656 192.449 391.46C191.92 391.244 191.194 391.019 190.272 390.784C189.076 390.47 188.105 390.156 187.36 389.842C186.614 389.528 185.977 389.067 185.448 388.459C184.938 387.832 184.683 386.998 184.683 385.959C184.683 385.174 184.918 384.449 185.389 383.782C185.859 383.115 186.526 382.586 187.389 382.193C188.252 381.801 189.233 381.605 190.331 381.605C192.057 381.605 193.449 382.046 194.508 382.929C195.567 383.792 196.136 384.988 196.215 386.518H194.155C194.097 385.576 193.724 384.821 193.037 384.253C192.371 383.664 191.449 383.37 190.272 383.37C189.233 383.37 188.389 383.615 187.742 384.106C187.095 384.596 186.771 385.204 186.771 385.929C186.771 386.557 186.958 387.077 187.33 387.489C187.723 387.881 188.203 388.195 188.772 388.43C189.341 388.646 190.105 388.891 191.066 389.166C192.224 389.479 193.145 389.783 193.832 390.077C194.518 390.372 195.107 390.803 195.597 391.372C196.087 391.941 196.342 392.696 196.362 393.637C196.362 394.5 196.126 395.275 195.656 395.961C195.185 396.628 194.528 397.158 193.685 397.55C192.841 397.942 191.871 398.138 190.772 398.138ZM202.915 383.576V393.549C202.915 394.529 203.101 395.206 203.474 395.579C203.847 395.951 204.504 396.138 205.445 396.138H207.328V397.903H205.122C203.67 397.903 202.592 397.569 201.885 396.903C201.179 396.216 200.826 395.098 200.826 393.549V383.576H198.591V381.84H200.826V377.81H202.915V381.84H207.328V383.576H202.915ZM224.639 381.84V397.903H222.58V395.079C222.109 396.079 221.383 396.844 220.403 397.373C219.422 397.903 218.324 398.168 217.108 398.168C215.186 398.168 213.617 397.579 212.401 396.402C211.185 395.206 210.577 393.48 210.577 391.225V381.84H212.607V390.989C212.607 392.735 213.038 394.069 213.901 394.99C214.784 395.912 215.98 396.373 217.49 396.373C219.04 396.373 220.275 395.883 221.197 394.902C222.119 393.921 222.58 392.48 222.58 390.578V381.84H224.639ZM228.399 389.842C228.399 388.195 228.732 386.753 229.399 385.518C230.066 384.262 230.978 383.301 232.135 382.635C233.312 381.948 234.636 381.605 236.107 381.605C237.519 381.605 238.794 381.948 239.931 382.635C241.069 383.321 241.902 384.213 242.432 385.312V376.133H244.491V397.903H242.432V394.314C241.941 395.432 241.137 396.353 240.019 397.079C238.901 397.785 237.587 398.138 236.077 398.138C234.606 398.138 233.282 397.795 232.106 397.108C230.949 396.422 230.037 395.451 229.37 394.196C228.723 392.941 228.399 391.49 228.399 389.842ZM242.432 389.872C242.432 388.577 242.167 387.44 241.637 386.459C241.108 385.478 240.382 384.723 239.46 384.194C238.558 383.664 237.558 383.4 236.46 383.4C235.322 383.4 234.302 383.654 233.4 384.164C232.498 384.674 231.782 385.42 231.253 386.4C230.743 387.361 230.488 388.509 230.488 389.842C230.488 391.156 230.743 392.313 231.253 393.314C231.782 394.294 232.498 395.049 233.4 395.579C234.302 396.089 235.322 396.344 236.46 396.344C237.558 396.344 238.558 396.079 239.46 395.549C240.382 395.02 241.108 394.265 241.637 393.284C242.167 392.303 242.432 391.166 242.432 389.872ZM263.725 389.048C263.725 389.754 263.705 390.293 263.666 390.666H250.339C250.398 391.882 250.692 392.921 251.222 393.784C251.751 394.647 252.448 395.304 253.311 395.755C254.174 396.187 255.115 396.402 256.135 396.402C257.468 396.402 258.586 396.079 259.489 395.432C260.41 394.784 261.018 393.912 261.312 392.813H263.489C263.097 394.382 262.254 395.667 260.959 396.667C259.685 397.648 258.076 398.138 256.135 398.138C254.625 398.138 253.271 397.805 252.075 397.138C250.879 396.451 249.937 395.49 249.251 394.255C248.584 393 248.251 391.539 248.251 389.872C248.251 388.205 248.584 386.743 249.251 385.488C249.918 384.233 250.849 383.272 252.046 382.605C253.242 381.938 254.605 381.605 256.135 381.605C257.665 381.605 258.998 381.938 260.136 382.605C261.293 383.272 262.175 384.174 262.783 385.312C263.411 386.43 263.725 387.675 263.725 389.048ZM261.636 388.989C261.656 387.793 261.411 386.773 260.901 385.929C260.41 385.086 259.734 384.449 258.871 384.017C258.008 383.586 257.066 383.37 256.047 383.37C254.517 383.37 253.213 383.86 252.134 384.841C251.055 385.822 250.457 387.204 250.339 388.989H261.636ZM275.023 381.546C276.945 381.546 278.514 382.144 279.73 383.341C280.946 384.517 281.554 386.233 281.554 388.489V397.903H279.525V388.724C279.525 386.979 279.083 385.645 278.201 384.723C277.338 383.802 276.151 383.341 274.641 383.341C273.092 383.341 271.856 383.831 270.934 384.812C270.013 385.792 269.552 387.234 269.552 389.136V397.903H267.492V381.84H269.552V384.576C270.062 383.596 270.797 382.85 271.758 382.34C272.719 381.811 273.808 381.546 275.023 381.546ZM288.786 383.576V393.549C288.786 394.529 288.972 395.206 289.345 395.579C289.717 395.951 290.374 396.138 291.316 396.138H293.199V397.903H290.992C289.541 397.903 288.462 397.569 287.756 396.903C287.05 396.216 286.697 395.098 286.697 393.549V383.576H284.461V381.84H286.697V377.81H288.786V381.84H293.199V383.576H288.786ZM302.125 398.138C300.282 398.138 298.772 397.716 297.595 396.873C296.438 396.01 295.791 394.843 295.653 393.372H297.771C297.87 394.275 298.291 395.01 299.036 395.579C299.801 396.128 300.821 396.402 302.096 396.402C303.214 396.402 304.087 396.138 304.714 395.608C305.361 395.079 305.685 394.422 305.685 393.637C305.685 393.088 305.509 392.637 305.155 392.284C304.802 391.931 304.351 391.656 303.802 391.46C303.273 391.244 302.547 391.019 301.625 390.784C300.429 390.47 299.458 390.156 298.713 389.842C297.968 389.528 297.33 389.067 296.801 388.459C296.291 387.832 296.036 386.998 296.036 385.959C296.036 385.174 296.271 384.449 296.742 383.782C297.213 383.115 297.879 382.586 298.742 382.193C299.605 381.801 300.586 381.605 301.684 381.605C303.41 381.605 304.802 382.046 305.862 382.929C306.921 383.792 307.489 384.988 307.568 386.518H305.509C305.45 385.576 305.077 384.821 304.391 384.253C303.724 383.664 302.802 383.37 301.625 383.37C300.586 383.37 299.743 383.615 299.095 384.106C298.448 384.596 298.124 385.204 298.124 385.929C298.124 386.557 298.311 387.077 298.683 387.489C299.076 387.881 299.556 388.195 300.125 388.43C300.694 388.646 301.459 388.891 302.42 389.166C303.577 389.479 304.498 389.783 305.185 390.077C305.871 390.372 306.46 390.803 306.95 391.372C307.44 391.941 307.695 392.696 307.715 393.637C307.715 394.5 307.48 395.275 307.009 395.961C306.538 396.628 305.881 397.158 305.038 397.55C304.194 397.942 303.224 398.138 302.125 398.138Z" fill="white"/>
<path fill-rule="evenodd" clip-rule="evenodd" d="M129.132 23.511C129.234 25.9629 129.048 28.3864 128.573 30.7814C127.921 32.8748 126.803 34.6924 125.217 36.2343C111.301 45.6762 99.1832 57.0481 88.8647 70.3497C87.2059 70.5438 85.6213 70.2641 84.1109 69.5108C77.5514 65.6552 72.6578 60.2955 69.4301 53.4318C68.3708 48.5212 68.6504 43.674 70.269 38.8908C73.1332 28.1227 78.3065 18.7083 85.7887 10.6478C86.8892 10.0142 87.8214 9.17531 88.5851 8.13107C93.3165 3.53011 99.0026 1.24641 105.643 1.28003C113.033 2.52037 119.232 5.9226 124.238 11.4867C126.951 15.0489 128.582 19.057 129.132 23.511Z" fill="white"/>
<path fill-rule="evenodd" clip-rule="evenodd" d="M85.7887 10.6478C86.8892 10.0142 87.8214 9.17531 88.5851 8.13107C87.4845 8.76464 86.5524 9.60354 85.7887 10.6478Z" fill="white"/>
<path fill-rule="evenodd" clip-rule="evenodd" d="M129.132 23.511C129.454 25.2315 129.501 27.0026 129.272 28.824C129.163 29.5522 128.93 30.2048 128.573 30.7814C129.048 28.3864 129.234 25.9629 129.132 23.511Z" fill="white"/>
<path fill-rule="evenodd" clip-rule="evenodd" d="M290.201 30.7814C289.726 28.3864 289.54 25.9629 289.642 23.511C290.543 16.7192 293.712 11.2663 299.15 7.15235C302.696 4.54034 306.611 2.67611 310.894 1.55966C316.199 0.764724 321.139 1.79005 325.715 4.63564C330.492 7.73413 334.546 11.6024 337.879 16.2405C344.118 25.0882 348.128 34.8753 349.903 45.6021C350.558 50.0731 349.624 54.1745 347.107 57.906C344.171 61.9607 340.675 65.4561 336.621 68.3923C334.589 69.7843 332.352 70.437 329.909 70.3497C319.591 57.0481 307.474 45.6762 293.557 36.2343C291.971 34.6924 290.853 32.8748 290.201 30.7814Z" fill="white"/>
<path fill-rule="evenodd" clip-rule="evenodd" d="M289.642 23.511C289.54 25.9629 289.726 28.3864 290.201 30.7814C289.845 30.2048 289.611 29.5522 289.502 28.824C289.273 27.0026 289.32 25.2315 289.642 23.511Z" fill="white"/>
<path fill-rule="evenodd" clip-rule="evenodd" d="M264.755 267.072C263.979 267.396 263.14 267.582 262.238 267.632C262.985 267.179 263.824 266.993 264.755 267.072Z" fill="white"/>
<path fill-rule="evenodd" clip-rule="evenodd" d="M140.038 263.717C140.779 263.692 141.432 263.878 141.995 264.276C141.254 264.301 140.601 264.115 140.038 263.717Z" fill="white"/>
<path fill-rule="evenodd" clip-rule="evenodd" d="M291.6 259.243C291.038 259.68 290.385 259.96 289.642 260.082C290.151 259.537 290.804 259.257 291.6 259.243Z" fill="white"/>
<path fill-rule="evenodd" clip-rule="evenodd" d="M231.199 218.696C232.195 218.954 233.221 219.047 234.275 218.975C233.818 219.16 233.305 219.253 232.737 219.255C232.095 219.242 231.582 219.056 231.199 218.696Z" fill="white"/>
<path fill-rule="evenodd" clip-rule="evenodd" d="M187.576 218.696C187.192 219.056 186.679 219.242 186.038 219.255C185.469 219.253 184.957 219.16 184.5 218.975C185.554 219.047 186.579 218.954 187.576 218.696Z" fill="white"/>
<path fill-rule="evenodd" clip-rule="evenodd" d="M349.764 134.246C350.161 134.81 350.348 135.462 350.323 136.204C349.926 135.64 349.738 134.988 349.764 134.246Z" fill="white"/>
<path fill-rule="evenodd" clip-rule="evenodd" d="M318.724 76.0822C319.308 76.3856 319.68 76.8515 319.843 77.4804C319.259 77.177 318.886 76.7111 318.724 76.0822Z" fill="white"/>
<path fill-rule="evenodd" clip-rule="evenodd" d="M188.974 24.9091C189.347 25.0956 189.347 25.0956 188.974 24.9091V24.9091Z" fill="white"/>
<path fill-rule="evenodd" clip-rule="evenodd" d="M318.724 76.0822C318.886 76.7111 319.259 77.177 319.843 77.4804C333.534 94.3244 343.508 113.246 349.764 134.246C349.738 134.988 349.926 135.64 350.323 136.204C352.742 143.043 354.744 150.034 356.335 157.176C359.291 173.735 357.797 189.86 351.861 205.553C340.938 228.407 323.926 245.045 300.827 255.468C297.806 256.886 294.73 258.144 291.6 259.243C290.804 259.257 290.151 259.537 289.642 260.082C281.593 263.261 273.297 265.591 264.755 267.072C263.824 266.993 262.985 267.179 262.238 267.632C249.081 270.538 235.752 272.17 222.25 272.525C195.016 273.995 168.265 271.245 141.995 264.276C141.432 263.878 140.779 263.692 140.038 263.717C127.861 260.051 116.209 255.158 105.083 249.036C88.2442 238.143 75.5209 223.649 66.9134 205.553C61.8418 192.385 60.0708 178.776 61.6003 164.726C61.8216 161.244 62.2876 157.795 62.9985 154.38C66.6002 140.126 71.2608 126.237 76.9802 112.714C88.0641 89.1378 103.584 68.9577 123.539 52.1735C136.657 43.004 150.825 35.7335 166.044 30.362C173.597 28.2267 181.241 26.5024 188.974 25.1888C180.702 32.6891 175.716 42.0105 174.013 53.1522C174.074 71.0172 182.789 82.0628 200.159 86.2889C209.786 87.6809 218.454 85.4438 226.165 79.5776C233.051 73.2098 234.776 65.613 231.338 56.7874C226.613 47.1789 218.923 42.6581 208.269 43.2252C204.257 44.0879 200.855 45.9989 198.062 48.9577C195.828 52.7431 196.806 55.2598 200.998 56.5078C201.557 56.368 202.117 56.2282 202.676 56.0884C208.966 49.8721 215.165 50.0119 221.272 56.5078C224.16 59.9442 225.092 63.8591 224.068 68.2524C223.358 70.3626 222.1 72.0871 220.293 73.4257C209.857 80.3019 199.697 79.9289 189.813 72.3072C184.229 66.9292 181.852 60.3578 182.682 52.5929C185.358 39.4387 192.955 30.5371 205.472 25.8879C211.996 23.2879 218.708 22.7286 225.606 24.2101C235.914 26.0292 246.074 28.4527 256.086 31.4805C270.039 36.7777 283.088 43.6754 295.235 52.1735C303.971 59.2787 311.801 67.2483 318.724 76.0822ZM132.767 136.204C144.354 141.111 155.726 146.563 166.883 152.562C168.533 153.657 169.512 155.195 169.819 157.176C170.787 164.36 169.296 170.978 165.345 177.03C160.106 183.716 153.441 185.72 145.351 183.042C137.084 178.78 131.817 172.115 129.551 163.048C128.126 157.402 127.939 151.716 128.992 145.991C130.097 142.663 131.356 139.401 132.767 136.204ZM285.448 136.204C286.154 136.766 286.667 137.511 286.986 138.441C292.742 151.738 291.344 164.229 282.791 175.912C279.176 180.352 274.562 183.102 268.949 184.161C262.459 184.621 257.286 182.244 253.429 177.03C248.855 170.102 247.644 162.646 249.794 154.659C250.307 153.774 251.006 153.075 251.891 152.562C262.948 146.707 274.134 141.254 285.448 136.204ZM234.275 218.975C233.221 219.047 232.195 218.954 231.199 218.696C230.355 218.46 229.609 218.041 228.961 217.437C222.488 212.011 215.963 206.651 209.387 201.358C202.811 206.651 196.286 212.011 189.813 217.437C189.165 218.041 188.419 218.46 187.576 218.696C186.579 218.954 185.554 219.047 184.5 218.975C181.245 217.563 180.173 215.14 181.284 211.705C188.843 205.079 196.58 198.648 204.493 192.41C204.666 192.145 204.62 191.912 204.354 191.711C200.614 190.283 199.542 187.719 201.138 184.021C202.218 182.696 203.616 181.951 205.332 181.784C208.036 182.157 210.739 182.157 213.442 181.784C217.64 182.536 219.131 184.959 217.916 189.054C217.597 189.644 217.177 190.157 216.658 190.592C215.715 190.969 214.876 191.481 214.141 192.13C221.649 198.473 229.246 204.718 236.931 210.866C238.81 214.504 237.924 217.207 234.275 218.975Z" fill="white"/>
</svg>
